<?xml version="1.0" encoding="utf-8"?>
<!-- Generator: Adobe Illustrator 17.0.0, SVG Export Plug-In . SVG Version: 6.00 Build 0)  -->
<!DOCTYPE svg PUBLIC "-//W3C//DTD SVG 1.1//EN" "http://www.w3.org/Graphics/SVG/1.1/DTD/svg11.dtd">
<svg version="1.1" id="Layer_3" xmlns="http://www.w3.org/2000/svg" xmlns:xlink="http://www.w3.org/1999/xlink" x="0px" y="0px"
	 width="117px" height="18.526px" viewBox="0 0 117 18.526" enable-background="new 0 0 117 18.526" xml:space="preserve">
<g id="Layer_2">
	<line fill="none" stroke="#75869C" stroke-miterlimit="10" x1="0" y1="8.376" x2="39" y2="8.376"/>
	<line fill="none" stroke="#75869C" stroke-miterlimit="10" x1="78" y1="8.376" x2="117" y2="8.376"/>
</g>
<g id="Layer_4">
	<path fill="#FEE0C4" d="M72.983,1.151c-3.096-2.341-5.723-0.745-8.098,1.538c-0.149,0.143-0.211,0.321-0.432,0.387
		c-3.347-3.181-6.451-3.951-8.82-1.654c-3.068,2.975-0.872,5.718,0.932,8.112c2.29,3.038,4.956,5.792,7.74,8.992
		c1.339-1.8,2.358-3.267,3.479-4.652c1.203-1.487,2.499-2.899,3.758-4.34C74.443,6.214,75.157,2.795,72.983,1.151z"/>
	<path fill="#75869C" d="M56.565,9.534c-1.804-2.394-4-5.136-0.932-8.112c0.027-0.026,0.054-0.046,0.081-0.071
		C55.18,1.746,54.658,2.2,54.149,2.689c-0.149,0.143-0.211,0.321-0.432,0.387c-3.347-3.181-6.451-3.951-8.82-1.654
		c-3.068,2.975-0.872,5.718,0.932,8.112c2.29,3.038,4.956,5.792,7.74,8.992c1.339-1.8,2.358-3.267,3.479-4.652
		c0.5-0.619,1.023-1.219,1.546-1.819C57.894,11.226,57.212,10.392,56.565,9.534z"/>
</g>
</svg>
