<?xml version="1.0" encoding="utf-8"?>
<!-- Generator: Adobe Illustrator 17.0.0, SVG Export Plug-In . SVG Version: 6.00 Build 0)  -->
<!DOCTYPE svg PUBLIC "-//W3C//DTD SVG 1.1//EN" "http://www.w3.org/Graphics/SVG/1.1/DTD/svg11.dtd">
<svg version="1.1" id="Layer_1" xmlns="http://www.w3.org/2000/svg" xmlns:xlink="http://www.w3.org/1999/xlink" x="0px" y="0px"
	 width="320px" height="130.092px" viewBox="319.378 215.332 320 130.092" enable-background="new 319.378 215.332 320 130.092"
	 xml:space="preserve">
<g>
	<path fill="#384A9C" d="M319.378,323.74h3.569c3.94,0,7.247,1.065,7.247,4.344c0,1.298-0.661,2.405-2.13,3.128
		c2.589,0.472,4.115,2.196,4.115,4.111c0,3.195-3.481,4.476-7.766,4.476h-5.033V323.74H319.378z M321.794,338.137h2.416
		c2.704,0,5.553-0.49,5.553-2.937c0-2.493-3.225-2.855-5.868-2.855h-2.099v5.792H321.794z M321.794,330.81h0.923
		c2.728,0,5.06-0.233,5.06-2.726c0-2.431-2.072-2.684-5.033-2.684h-0.95L321.794,330.81L321.794,330.81z"/>
	<path fill="#384A9C" d="M335.65,335.155c0.033,1.855,1.814,3.345,4.432,3.345c1.956,0,3.221-0.874,4.111-2.065l1.957,0.828
		c-1.296,1.788-3.481,2.813-6.242,2.813c-4.024,0-6.613-2.28-6.613-5.156c0-2.959,2.329-5.41,6.558-5.41
		c4.341,0,6.642,2.664,6.411,5.643H335.65V335.155z M343.849,333.705c-0.317-1.448-1.957-2.618-3.969-2.618
		c-1.985,0-3.826,1.171-4.115,2.618H343.849L343.849,333.705z"/>
	<polygon fill="#384A9C" points="345.972,329.787 348.645,329.787 353.421,336.968 357.791,329.787 360.408,329.787 
		350.428,345.424 347.813,345.424 352.181,338.862 	"/>
	<path fill="#384A9C" d="M360.116,334.818c0-2.942,3.137-5.306,7.105-5.306c3.969,0,7.101,2.365,7.101,5.306
		c0,2.937-3.161,5.258-7.101,5.258C363.279,340.076,360.116,337.755,360.116,334.818L360.116,334.818z M362.416,334.792
		c0,2.047,1.957,3.707,4.803,3.707c2.848,0,4.801-1.661,4.801-3.707c0-2.023-1.954-3.703-4.801-3.703
		C364.373,331.089,362.416,332.769,362.416,334.792L362.416,334.792z"/>
	<path fill="#384A9C" d="M378.572,331.001h0.06c0.947-0.958,2.187-1.489,3.855-1.489c3.738,0,4.601,2.003,4.601,4.344v5.945h-2.301
		v-5.646c0-1.619-0.175-3.066-2.848-3.066c-3.165,0-3.367,2.172-3.367,3.962v4.752h-2.3v-10.014h2.3V331.001L378.572,331.001z"/>
	<path fill="#384A9C" d="M400.283,338.416h-0.06c-1.122,1.087-2.819,1.661-4.658,1.661c-3.971,0-6.471-2.493-6.471-5.258
		c0-2.855,2.444-5.306,6.498-5.306c1.81,0,3.536,0.637,4.63,1.702h0.06v-8.987h2.301v17.576h-2.301V338.416L400.283,338.416z
		 M391.45,334.688c0,1.959,1.553,3.811,4.428,3.811c2.962,0,4.517-1.768,4.517-3.791c0-2.001-1.699-3.62-4.547-3.62
		C393.178,331.089,391.45,332.811,391.45,334.688L391.45,334.688z"/>
	<path fill="#384A9C" d="M425.61,339.801h-2.301v-1.386h-0.056c-1.18,1.107-2.76,1.661-4.661,1.661
		c-3.967,0-6.471-2.493-6.471-5.258c0-2.855,2.447-5.306,6.502-5.306c1.839,0,3.509,0.637,4.63,1.702h0.056v-1.426h2.301
		L425.61,339.801L425.61,339.801z M414.481,334.688c0,1.959,1.551,3.811,4.428,3.811c2.962,0,4.516-1.768,4.516-3.791
		c0-2.001-1.695-3.62-4.543-3.62C416.208,331.089,414.481,332.811,414.481,334.688L414.481,334.688z"/>
	<path fill="#384A9C" d="M430.958,331.001h0.06c0.947-0.958,2.185-1.489,3.853-1.489c3.738,0,4.603,2.003,4.603,4.344v5.945h-2.301
		v-5.646c0-1.619-0.175-3.066-2.848-3.066c-3.163,0-3.365,2.172-3.365,3.962v4.752h-2.302v-10.014h2.302v1.213H430.958z"/>
	<polygon fill="#384A9C" points="440.388,329.787 443.061,329.787 447.836,336.968 452.205,329.787 454.823,329.787 
		444.843,345.424 442.228,345.424 446.596,338.862 	"/>
	<path fill="#384A9C" d="M468.848,332.108c-0.317-0.533-1.007-1.02-1.839-1.02c-0.807,0-1.67,0.468-1.67,1.107
		c0,0.916,1.551,1.258,3.135,1.748c1.58,0.488,3.134,1.191,3.134,2.875c0,1.894-2.068,3.259-4.57,3.259
		c-2.272,0-4.055-0.958-4.776-2.535l2.043-0.641c0.575,0.94,1.236,1.597,2.76,1.597c1.236,0,2.185-0.617,2.185-1.531
		c0-2.24-6.1-1.473-6.1-4.623c0-1.684,1.843-2.833,4.028-2.833c1.553,0,2.99,0.808,3.596,1.852L468.848,332.108L468.848,332.108z"/>
	<polygon fill="#384A9C" points="476.064,339.801 473.766,339.801 473.766,331.364 472.357,331.364 472.357,329.787 
		473.766,329.787 473.766,326.187 476.064,326.187 476.064,329.787 478.479,329.787 478.479,331.364 476.064,331.364 	"/>
	<path fill="#384A9C" d="M478.134,334.818c0-2.942,3.135-5.306,7.105-5.306c3.969,0,7.105,2.365,7.105,5.306
		c0,2.937-3.163,5.258-7.105,5.258C481.299,340.076,478.134,337.755,478.134,334.818L478.134,334.818z M480.436,334.792
		c0,2.047,1.956,3.707,4.803,3.707c2.848,0,4.803-1.661,4.803-3.707c0-2.023-1.956-3.703-4.803-3.703
		C482.391,331.089,480.436,332.769,480.436,334.792L480.436,334.792z"/>
	<path fill="#384A9C" d="M496.477,330.876h0.058c0.805-0.79,1.493-1.364,2.99-1.364c0.777,0,1.409,0.191,2.072,0.47l-1.092,1.553
		c-0.459-0.233-0.776-0.446-1.382-0.446c-2.531,0-2.646,2.405-2.646,3.703v5.009h-2.301v-10.014h2.301V330.876L496.477,330.876z"/>
	<path fill="#384A9C" d="M503.866,335.155c0.027,1.855,1.814,3.345,4.432,3.345c1.954,0,3.219-0.874,4.111-2.065l1.957,0.828
		c-1.295,1.788-3.481,2.813-6.242,2.813c-4.028,0-6.615-2.28-6.615-5.156c0-2.959,2.329-5.41,6.558-5.41
		c4.341,0,6.642,2.664,6.411,5.643h-10.613V335.155z M512.063,333.705c-0.317-1.448-1.956-2.618-3.969-2.618
		c-1.983,0-3.826,1.171-4.113,2.618H512.063L512.063,333.705z"/>
	<path fill="#384A9C" d="M522.869,334.818c0-2.942,3.134-5.306,7.101-5.306c3.969,0,7.105,2.365,7.105,5.306
		c0,2.937-3.165,5.258-7.105,5.258S522.869,337.755,522.869,334.818L522.869,334.818z M525.169,334.792
		c0,2.047,1.954,3.707,4.801,3.707c2.848,0,4.803-1.661,4.803-3.707c0-2.023-1.956-3.703-4.803-3.703
		C527.123,331.089,525.169,332.769,525.169,334.792L525.169,334.792z"/>
	<path fill="#384A9C" d="M541.527,339.801h-2.301v-8.438h-1.267v-1.577h1.267v-3.982c0-0.828,0-1.874,0.603-2.596
		c0.748-0.894,2.099-1.256,3.48-1.256c0.546,0,1.092,0.084,1.641,0.213v1.723c-0.519-0.126-0.978-0.233-1.551-0.233
		c-1.87,0-1.87,0.981-1.87,2.749v3.383h3.421v1.577h-3.421L541.527,339.801L541.527,339.801z"/>
	<path fill="#384A9C" d="M553.77,329.787h2.301v10.011h-2.301V329.787L553.77,329.787z M556.561,326.016
		c0,0.683-0.748,1.214-1.641,1.214c-0.892,0-1.639-0.532-1.639-1.214c0-0.657,0.748-1.211,1.639-1.211
		C555.813,324.805,556.561,325.359,556.561,326.016L556.561,326.016z"/>
	<polygon fill="#384A9C" points="562.084,339.801 559.782,339.801 559.782,331.364 558.371,331.364 558.371,329.787 
		559.782,329.787 559.782,326.187 562.084,326.187 562.084,329.787 564.498,329.787 564.498,331.364 562.084,331.364 	"/>
	<path fill="#384A9C" d="M570.823,332.108c-0.317-0.533-1.005-1.02-1.841-1.02c-0.805,0-1.668,0.468-1.668,1.107
		c0,0.916,1.551,1.258,3.137,1.748c1.58,0.488,3.134,1.191,3.134,2.875c0,1.894-2.068,3.259-4.57,3.259
		c-2.274,0-4.055-0.958-4.776-2.535l2.043-0.641c0.574,0.94,1.236,1.597,2.76,1.597c1.234,0,2.185-0.617,2.185-1.531
		c0-2.24-6.098-1.473-6.098-4.623c0-1.684,1.841-2.833,4.028-2.833c1.553,0,2.99,0.808,3.596,1.852L570.823,332.108L570.823,332.108
		z"/>
	<polygon fill="#384A9C" points="585.457,333.494 590.377,329.787 593.454,329.787 587.671,334.048 594.543,339.801 
		591.498,339.801 586.06,335.242 585.457,335.686 585.457,339.801 583.156,339.801 583.156,322.227 585.457,322.227 	"/>
	<path fill="#384A9C" d="M596.012,329.787h2.301v10.011h-2.301V329.787L596.012,329.787z M598.8,326.016
		c0,0.683-0.748,1.214-1.641,1.214c-0.89,0-1.639-0.532-1.639-1.214c0-0.657,0.748-1.211,1.639-1.211
		C598.052,324.805,598.8,325.359,598.8,326.016L598.8,326.016z"/>
	<path fill="#384A9C" d="M604.206,331.001h0.058c0.947-0.958,2.183-1.489,3.855-1.489c3.738,0,4.598,2.003,4.598,4.344v5.945h-2.298
		v-5.646c0-1.619-0.175-3.066-2.848-3.066c-3.164,0-3.367,2.172-3.367,3.962v4.752h-2.3v-10.014h2.3v1.213H604.206z"/>
	<path fill="#384A9C" d="M625.913,338.416h-0.056c-1.123,1.087-2.819,1.661-4.659,1.661c-3.969,0-6.473-2.493-6.473-5.258
		c0-2.855,2.447-5.306,6.502-5.306c1.81,0,3.536,0.637,4.63,1.702h0.056v-8.987h2.301v17.576h-2.301V338.416L625.913,338.416z
		 M617.086,334.688c0,1.959,1.553,3.811,4.428,3.811c2.962,0,4.514-1.768,4.514-3.791c0-2.001-1.695-3.62-4.543-3.62
		C618.809,331.089,617.086,332.811,617.086,334.688L617.086,334.688z"/>
	<path fill="#384A9C" d="M635.114,338.862c0,0.661-0.717,1.214-1.608,1.214c-0.896,0-1.611-0.553-1.611-1.214
		c0-0.637,0.717-1.171,1.611-1.171C634.396,337.691,635.114,338.224,635.114,338.862L635.114,338.862z"/>
	<path fill="#384A9C" d="M319.81,277.07h17.252c7.891,0,15.95,1.721,15.95,10.273c0,3.245-1.786,6.44-5.355,7.474v0.297
		c4.435,1.424,7.249,4.372,7.249,8.796c0,7.62-7.788,10.227-14.927,10.227H319.81V277.07L319.81,277.07z M334.895,291.325
		c2.165,0,4.599-0.195,4.599-2.753c0-2.751-2.76-2.555-4.923-2.555h-1.027v5.308H334.895L334.895,291.325z M333.546,305.288h1.673
		c2.434,0,5.949-0.049,5.949-3.097c0-3.095-3.784-3.046-6.163-3.046h-1.458V305.288L333.546,305.288z"/>
	<polygon fill="#384A9C" points="357.274,277.07 387.184,277.07 387.184,287.197 373.556,287.197 373.556,290.736 386.004,290.736 
		386.004,300.372 373.556,300.372 373.556,304.01 387.652,304.01 387.652,314.135 357.274,314.135 	"/>
	<path fill="#384A9C" d="M408.202,277.07l5.573,9.683h0.533c0.53-1.18,0.992-2.36,1.657-3.49l3.585-6.193h20.437l-17.121,21.088
		v15.977h-17.784v-15.977l-17.454-21.088H408.202L408.202,277.07z"/>
	<path fill="#384A9C" d="M491.428,295.7c0,11.899-13.328,19.024-29.723,19.024c-16.393,0-29.721-7.125-29.721-19.024
		c0-11.651,13.401-19.222,29.721-19.222C478.027,276.478,491.428,284.051,491.428,295.7L491.428,295.7z M451.655,295.9
		c0,4.226,4.135,7.125,10.051,7.125c5.918,0,10.049-2.899,10.049-7.125c0-3.933-3.846-7.227-10.049-7.227
		C455.506,288.673,451.655,291.966,451.655,295.9L451.655,295.9z"/>
	<path fill="#384A9C" d="M554.804,277.07h30.855c27.982,0,49.438,5.455,49.438,19.073c0,11.01-17.476,17.993-41.918,17.993h-38.375
		V277.07L554.804,277.07z M585.106,303.025h1.879c10.062,0,17.804-2.065,17.804-6.93c0-5.211-6.746-7.422-17.804-7.422h-1.879
		V303.025L585.106,303.025z"/>
	<path fill="#384A9C" d="M628.524,277.474c0-2.746,2.189-4.936,4.962-4.936c2.773,0,4.963,2.189,4.963,4.936
		c0,2.748-2.19,4.936-4.963,4.936C630.713,282.41,628.524,280.221,628.524,277.474L628.524,277.474z M637.69,277.474
		c0-2.329-1.939-4.177-4.204-4.177c-2.267,0-4.202,1.848-4.202,4.177s1.935,4.177,4.202,4.177
		C635.751,281.653,637.69,279.803,637.69,277.474L637.69,277.474z M635.842,280.145h-0.912l-1.621-2.493h-0.912v2.493h-0.759v-5.406
		h2.352c0.974,0,1.925,0.268,1.925,1.431c0,1.065-0.748,1.458-1.71,1.482L635.842,280.145L635.842,280.145z M633.311,276.893
		c0.672,0,1.848,0.126,1.848-0.734c0-0.557-0.734-0.657-1.32-0.657h-1.44v1.393h0.912V276.893z"/>
	<path fill="#384A9C" d="M629.961,320.537c0-2.607,2.079-4.687,4.707-4.687c2.631,0,4.71,2.077,4.71,4.687
		c0,2.607-2.078,4.685-4.71,4.685C632.04,325.224,629.961,323.145,629.961,320.537L629.961,320.537z M638.657,320.537
		c0-2.21-1.837-3.966-3.989-3.966c-2.148,0-3.986,1.753-3.986,3.966c0,2.21,1.837,3.966,3.986,3.966
		C636.82,324.503,638.657,322.748,638.657,320.537L638.657,320.537z M636.904,323.072h-0.863l-1.539-2.367h-0.868v2.367h-0.719
		v-5.127h2.234c0.925,0,1.828,0.251,1.828,1.358c0,1.007-0.71,1.378-1.622,1.402L636.904,323.072L636.904,323.072z M634.502,319.984
		c0.635,0,1.755,0.122,1.755-0.697c0-0.53-0.697-0.623-1.251-0.623h-1.371v1.32H634.502L634.502,319.984z"/>
	<polygon fill="#384A9C" points="513.891,277.095 493.855,277.095 493.855,314.161 513.816,314.161 513.816,295.305 
		531.493,314.161 551.456,314.161 551.456,277.095 531.493,277.095 531.493,296.306 	"/>
	<path fill="#384A9C" d="M319.711,217.417h5.987c9.246,0,17.966,2.409,17.966,13.474c0,3.578-1.952,7.746-5.269,9.308v0.129
		c5.792,1.043,9.827,6.704,9.827,12.434c0,9.83-8.396,13.736-17.053,13.736h-11.456V217.417L319.711,217.417z M325.831,239.159
		h1.559c5.796,0,10.548-1.173,10.548-8.204c0-6.899-4.689-8.068-10.415-8.068h-1.693v16.272H325.831z M325.831,261.03h4.685
		c5.664,0,11.589-1.691,11.589-8.656c0-6.899-7.032-8.334-12.5-8.334h-3.773v16.99H325.831z"/>
	<polygon fill="#384A9C" points="351.795,217.417 378.16,217.417 378.16,223.014 357.915,223.014 357.915,236.75 377.572,236.75 
		377.572,242.347 357.915,242.347 357.915,260.901 378.16,260.901 378.16,266.498 351.795,266.498 	"/>
	<path fill="#384A9C" d="M383.887,217.417h10.155c15.038,0,27.538,7.94,27.538,24.278c0,16.729-12.239,24.803-27.732,24.803h-9.96
		V217.417L383.887,217.417z M390.006,260.901h2.148c12.498,0,23.304-4.689,23.304-18.943c0-14.322-10.808-18.945-23.304-18.945
		h-2.148V260.901L390.006,260.901z"/>
	<path fill="#384A9C" d="M438.8,217.417h5.99c9.242,0,17.966,2.409,17.966,13.474c0,3.578-1.954,7.746-5.273,9.308v0.129
		c5.796,1.043,9.83,6.704,9.83,12.434c0,9.83-8.396,13.736-17.053,13.736h-11.458v-49.081H438.8z M444.92,239.159h1.562
		c5.792,0,10.544-1.173,10.544-8.204c0-6.899-4.685-8.068-10.415-8.068h-1.691V239.159L444.92,239.159z M444.92,261.03h4.689
		c5.663,0,11.584-1.691,11.584-8.656c0-6.899-7.026-8.334-12.498-8.334h-3.776v16.99H444.92z"/>
	<path fill="#384A9C" d="M479.156,254.193l-5.597,12.305h-6.575l23.434-51.166l23.434,51.166h-6.575l-5.597-12.305H479.156
		L479.156,254.193z M490.416,228.744l-8.723,19.852h17.449L490.416,228.744L490.416,228.744z"/>
	<polygon fill="#384A9C" points="524.659,266.498 518.539,266.498 518.539,223.014 506.888,223.014 506.888,217.417 
		536.309,217.417 536.309,223.014 524.659,223.014 	"/>
	<polygon fill="#384A9C" points="569.103,237.207 569.103,217.417 575.223,217.417 575.223,266.498 569.103,266.498 
		569.103,242.932 545.735,242.932 545.735,266.498 539.617,266.498 539.617,217.417 545.735,217.417 545.735,237.207 	"/>
	<path fill="#384A9C" d="M620.961,259.856c-3.711,4.363-8.92,7.684-14.712,7.684c-8.201,0-15.038-5.987-15.038-14.45
		c0-6.253,3.906-9.636,8.594-13.019l3.061-2.212c-2.799-2.931-5.402-6.577-5.402-10.743c0-6.77,4.88-10.739,11.323-10.739
		c5.99,0,11.327,3.773,11.327,10.22c0,5.532-4.818,9.242-8.918,12.236l10.22,12.369l5.728-6.639l3.907,4.035l-5.99,7.032
		l8.789,10.872h-7.551L620.961,259.856L620.961,259.856z M605.859,242.675c-3.383,2.343-8.918,5.659-8.918,10.349
		c0,4.687,4.424,9.048,9.113,9.048c4.557,0,8.201-3.449,11.262-6.509l-10.87-13.279L605.859,242.675L605.859,242.675z
		 M608.53,234.081c2.471-1.952,5.859-3.971,5.859-7.551c0-3.45-2.474-5.339-5.73-5.339c-2.928,0-5.468,2.085-5.468,5.207
		c0,2.476,1.497,4.299,2.931,6.12l1.624,2.085L608.53,234.081L608.53,234.081z"/>
</g>
</svg>
