<?xml version="1.0" encoding="utf-8"?>
<!-- Generator: Adobe Illustrator 17.0.0, SVG Export Plug-In . SVG Version: 6.00 Build 0)  -->
<!DOCTYPE svg PUBLIC "-//W3C//DTD SVG 1.1//EN" "http://www.w3.org/Graphics/SVG/1.1/DTD/svg11.dtd">
<svg version="1.1" id="Layer_1" xmlns="http://www.w3.org/2000/svg" xmlns:xlink="http://www.w3.org/1999/xlink" x="0px" y="0px"
	 width="302.876px" height="64.661px" viewBox="9.976 6.481 302.876 64.661" enable-background="new 9.976 6.481 302.876 64.661"
	 xml:space="preserve">
<path fill="#ED1C2E" d="M42.308,49.755c6.159,0,11.152-4.996,11.152-11.152c0-6.158-4.993-11.152-11.152-11.152
	c-6.155,0-11.149,4.994-11.149,11.152C31.159,44.761,36.152,49.755,42.308,49.755L42.308,49.755z M42.308,60.285
	c11.861,0,21.474-9.615,21.474-21.476c0-11.859-9.614-21.472-21.474-21.472c-11.858,0-21.473,9.612-21.473,21.472
	C20.835,50.671,30.45,60.285,42.308,60.285L42.308,60.285z M9.976,38.81c0-17.856,14.476-32.329,32.332-32.329
	S74.641,20.955,74.641,38.81c0,17.858-14.478,32.332-32.333,32.332C24.45,71.142,9.976,56.668,9.976,38.81L9.976,38.81z"/>
<polygon points="85.143,15.606 121.983,15.606 121.983,24.9 109.312,24.9 109.312,62.155 98.054,62.155 98.054,24.97 85.143,24.97 
	"/>
<path d="M177.469,24.97H167.14v9.294c0,0,8.057,0.029,9.263,0c3.236-0.068,5.739-1.513,5.739-4.682
	C182.142,26.135,180.018,24.97,177.469,24.97L177.469,24.97z M156.398,15.606c0,0,8.471,0,21.864,0
	c12.43,0,14.151,8.505,14.151,13.461c0,7.197-6.197,10.813-6.748,10.95c0,0,5.441,2.031,5.441,8.195v8.677
	c0,3.479,2.134,4.442,2.512,5.267h-8.883c-4.235-0.48-4.166-3.854-4.132-5.784v-7.47c-0.103-1.824-0.654-3.859-4.476-3.927h-8.986
	v17.181h-10.777L156.398,15.606L156.398,15.606z"/>
<polygon points="239.931,15.606 239.931,62.155 273.463,62.155 273.463,52.585 250.877,52.585 250.877,42.183 270.159,42.183 
	270.159,33.372 250.877,33.372 250.877,24.97 273.463,24.97 273.463,15.606 "/>
<polygon points="275.049,24.97 288.341,24.97 288.341,62.155 299.355,62.155 299.355,24.97 312.852,24.97 312.852,15.606 
	275.049,15.606 "/>
<path d="M133.621,32.029l-3.96,12.016h8.162L133.621,32.029L133.621,32.029z M127.38,15.596h11.949l16.277,46.559h-11.58
	l-3.362-9.675h-13.739l-3.171,9.675H112.27L127.38,15.596L127.38,15.596z"/>
<path d="M236.073,36.161h-20.004v9.053h9.501c-0.019,1.863,0.277,3.723-1.957,6.339c-0.76,0.892-3.364,2.889-6.996,2.889
	c-3.064,0-5.266-0.876-7.178-2.499c-4.223-3.586-5.217-10.285-5.217-13.788c0-4.407,1.754-15.354,12.531-15.803
	c0,0,7.268-0.469,9.162,8.297H236c-0.204-4.443-5.372-16.92-19.247-16.938c-4.789-0.007-10.867,1.435-15.9,6.475
	c-3.646,3.651-6.926,9.781-6.926,18.417c0,9.369,3.448,15.46,6.603,18.805c5.537,5.877,11.116,6.328,14.021,6.328
	c2.305,0,6.714-0.343,12.43-4.2l1.514,2.616h7.576L236.073,36.161L236.073,36.161z"/>
<path d="M304.465,59.094h0.58c0.37,0,0.644-0.057,0.644-0.456c0-0.355-0.375-0.409-0.676-0.409h-0.548V59.094L304.465,59.094z
	 M303.813,57.721h1.239c0.823,0,1.289,0.256,1.289,0.972c0,0.603-0.378,0.836-0.864,0.878l0.877,1.435h-0.681l-0.8-1.404h-0.409
	v1.404h-0.652L303.813,57.721L303.813,57.721L303.813,57.721z M304.983,61.682c1.216,0,2.212-0.974,2.212-2.316
	c0-1.334-0.996-2.297-2.212-2.297c-1.235,0-2.215,0.964-2.215,2.297C302.768,60.708,303.748,61.682,304.983,61.682L304.983,61.682z
	 M304.983,56.439c1.591,0,3.011,1.146,3.011,2.928c0,1.79-1.42,2.942-3.011,2.942c-1.594,0-3.014-1.153-3.014-2.942
	C301.969,57.585,303.389,56.439,304.983,56.439L304.983,56.439z"/>
</svg>
