<?xml version="1.0" encoding="utf-8"?>
<!-- Generator: Adobe Illustrator 17.0.0, SVG Export Plug-In . SVG Version: 6.00 Build 0)  -->
<!DOCTYPE svg PUBLIC "-//W3C//DTD SVG 1.1//EN" "http://www.w3.org/Graphics/SVG/1.1/DTD/svg11.dtd">
<svg version="1.1" id="Layer_1" xmlns="http://www.w3.org/2000/svg" xmlns:xlink="http://www.w3.org/1999/xlink" x="0px" y="0px"
	 width="640px" height="39.365px" viewBox="54.752 55.137 640 39.365" enable-background="new 54.752 55.137 640 39.365"
	 xml:space="preserve">
<g>
	<path d="M342.701,55.137c4.915,1.174,9.015,3.535,11.857,7.871c4.507,6.879,4.321,17.424-0.5,24.069
		c-6.99,9.635-21.352,9.381-28.012-0.496c-5.99-8.882-4.085-22.171,4.252-28.13c2.109-1.507,4.778-2.231,7.189-3.314
		C339.226,55.137,340.964,55.137,342.701,55.137z M350.791,74.533c-0.502-3.164-0.738-6.589-1.632-9.831
		c-1.276-4.624-4.295-6.575-9.083-6.552c-4.58,0.022-7.635,2.107-8.902,6.587c-1.834,6.484-1.849,13.082-0.092,19.581
		c1.309,4.844,4.4,6.985,9.243,6.94c4.777-0.045,7.891-2.33,9.068-7.171C350.127,81.065,350.317,77.912,350.791,74.533z"/>
	<path d="M441.751,55.137c4.047,1.134,7.715,2.845,10.478,6.212c6.173,7.521,5.907,20.233-0.656,27.405
		c-6.64,7.256-18.349,7.146-25.142-0.236c-7.905-8.591-6.151-24.461,3.515-30.619c1.98-1.262,4.384-1.858,6.593-2.761
		C438.276,55.137,440.014,55.137,441.751,55.137z M428.446,74.733c0.544,3.359,0.797,6.78,1.695,10.023
		c1.24,4.474,4.358,6.513,8.942,6.51c4.607-0.003,7.686-2.055,8.977-6.495c1.941-6.679,1.948-13.461,0.003-20.143
		c-1.311-4.503-4.43-6.544-9.175-6.482c-4.57,0.06-7.656,2.19-8.818,6.667C429.24,68.012,428.976,71.358,428.446,74.733z"/>
	<path d="M539.999,55.137c3.86,1.024,7.361,2.622,10.112,5.687c6.465,7.205,6.558,20.358,0.115,27.563
		c-7.734,8.65-21.419,7.385-27.438-2.539c-5.592-9.219-3.2-22.278,5.266-27.795c2.019-1.316,4.474-1.962,6.729-2.916
		C536.524,55.137,538.262,55.137,539.999,55.137z M548.097,74.763c-0.585-3.49-0.862-7.047-1.826-10.406
		c-1.247-4.346-4.322-6.224-8.941-6.205c-4.489,0.018-7.461,1.897-8.779,6.181c-2.11,6.86-2.104,13.849-0.013,20.709
		c1.328,4.356,4.34,6.229,8.961,6.218c4.509-0.009,7.586-2.005,8.822-6.389C547.238,81.634,547.516,78.216,548.097,74.763z"/>
	<path d="M592.933,55.137c2.335,1.044,4.669,2.088,7.239,3.237c0.134-0.449,0.18-1.131,0.519-1.602
		c0.368-0.511,1.026-1.154,1.528-1.13c0.456,0.022,1.238,0.853,1.25,1.344c0.1,3.937,0.106,7.88-0.02,11.815
		c-0.016,0.5-0.963,0.97-1.48,1.454c-0.443-0.49-1.115-0.91-1.284-1.481c-0.414-1.39-0.401-2.923-0.906-4.268
		c-1.482-3.949-5.257-6.375-9.544-6.344c-4.575,0.033-7.717,2.006-9.134,6.397c-2.211,6.851-2.261,13.833,0.154,20.649
		c1.751,4.942,7.247,7.379,12.148,5.562c1.178-0.436,2.308-1.362,3.12-2.345c1.429-1.729,1.966-4.892,1.58-7.554
		c-1.222,0-2.471-0.017-3.718,0.005c-1.135,0.02-1.829-0.449-1.749-1.642c0.079-1.179,0.811-1.456,1.941-1.442
		c4.661,0.06,9.324,0.063,13.985-0.002c1.159-0.016,1.851,0.344,1.914,1.483c0.066,1.185-0.666,1.63-1.792,1.603
		c-1.191-0.03-2.384-0.007-3.602-0.007c-0.339,1.579-0.547,3.1-0.998,4.545c-1.243,3.987-3.938,6.583-7.915,7.833
		c-11.626,3.652-22.725-3.814-23.71-15.959c-0.641-7.909,1.377-14.774,8.287-19.378c1.944-1.295,4.367-1.87,6.571-2.774
		C589.19,55.137,591.061,55.137,592.933,55.137z"/>
	<path d="M77.231,55.137c1.734,3.974,3.5,7.934,5.196,11.923c3.082,7.251,6.175,14.499,9.14,21.798
		c0.6,1.477,1.415,1.94,2.857,1.738c0.527-0.074,1.187-0.27,1.572-0.044c0.684,0.403,1.595,1.016,1.709,1.664
		c0.208,1.191-0.786,1.469-1.866,1.418c-3.064-0.144-6.129-0.298-9.195-0.337c-1.461-0.019-2.927,0.203-4.388,0.339
		c-1.103,0.102-2.054-0.289-1.856-1.442c0.111-0.642,1.013-1.406,1.712-1.624c0.9-0.28,1.952-0.068,3.325-0.068
		c-1.064-2.532-1.984-4.858-3.044-7.117c-0.177-0.377-0.96-0.657-1.468-0.664c-4.275-0.051-8.553-0.058-12.828,0.01
		c-0.54,0.008-1.347,0.388-1.559,0.825c-1.046,2.151-1.932,4.379-3.031,6.943c1.339,0,2.417,0.038,3.491-0.01
		c1.281-0.058,2.188,0.423,2.106,1.768c-0.079,1.297-1.066,1.393-2.209,1.364c-3.323-0.085-6.651-0.076-9.975-0.015
		c-1.102,0.02-2.065,0.07-2.161-1.356c-0.088-1.308,0.68-1.992,1.845-1.713c3.205,0.769,4.149-1.156,5.201-3.637
		c4.507-10.631,9.197-21.183,13.822-31.764C76.162,55.137,76.697,55.137,77.231,55.137z M80.771,79.423
		c-2.077-4.987-4.006-9.621-6.128-14.717c-2.246,5.174-4.283,9.868-6.388,14.717C72.582,79.423,76.48,79.423,80.771,79.423z"/>
	<path d="M218.434,90.503c0-10.62,0-21.071,0-31.729c-1.706,0-3.29-0.027-4.873,0.009c-1.187,0.027-2.264-0.144-2.194-1.624
		c0.067-1.415,1.051-1.513,2.291-1.491c4.93,0.089,9.864,0.094,14.794,0.016c1.237-0.02,2.192,0.033,2.244,1.506
		c0.049,1.362-0.852,1.631-2.004,1.59c-1.117-0.041-2.236-0.008-3.477-0.008c0,4.492,0,8.803,0,13.281c5.327,0,10.622,0,16.019,0
		c0-4.404,0-8.717,0-13.28c-1.342,0-2.586-0.012-3.83,0.004c-1.154,0.014-1.78-0.508-1.708-1.688
		c0.075-1.224,0.855-1.447,1.949-1.439c5.131,0.041,10.261,0.042,15.391-0.002c1.1-0.009,1.867,0.226,1.952,1.438
		c0.096,1.344-0.699,1.722-1.891,1.699c-1.662-0.031-3.324-0.007-5.143-0.007c0,10.571,0,21.027,0,31.726
		c1.677,0,3.311,0.03,4.944-0.009c1.241-0.03,2.171,0.29,2.095,1.739c-0.074,1.39-1.047,1.404-2.158,1.394
		c-4.997-0.046-9.994-0.038-14.992,0.007c-1.103,0.01-2.084-0.003-2.15-1.405c-0.069-1.458,0.868-1.773,2.103-1.732
		c1.061,0.035,2.125,0.007,3.363,0.007c0-4.944,0-9.841,0-14.905c-5.226,0-10.471,0-15.898,0c0,4.848,0,9.747,0,14.902
		c1.12,0,2.285,0.024,3.448-0.007c1.17-0.032,2.011,0.329,1.985,1.651c-0.026,1.358-0.904,1.513-2.066,1.501
		c-5.064-0.049-10.128-0.037-15.191,0.006c-1.147,0.009-2.069-0.17-2.072-1.521c-0.003-1.287,0.835-1.67,2.018-1.638
		C214.982,90.536,216.581,90.503,218.434,90.503z"/>
	<path d="M286.517,75.242c0,5.161,0,10.089,0,15.261c1.707,0,3.343,0.037,4.975-0.012c1.245-0.037,2.193,0.296,2.14,1.711
		c-0.058,1.524-1.166,1.422-2.323,1.411c-5.399-0.052-10.797-0.047-16.196-0.005c-1.127,0.009-2.273,0.194-2.362-1.359
		c-0.091-1.592,1.012-1.792,2.278-1.763c1.521,0.035,3.043,0.008,4.729,0.008c0-10.532,0-20.982,0-31.726
		c-1.57,0-3.143-0.027-4.715,0.008c-1.233,0.028-2.419-0.035-2.295-1.692c0.11-1.473,1.162-1.426,2.354-1.387
		c4.333,0.141,8.673,0.074,13.005,0.249c2.921,0.118,5.877,0.286,8.728,0.869c1.687,0.345,3.402,1.295,4.753,2.403
		c3.961,3.246,3.442,8.669-1.055,11.924c-1.228,0.889-2.664,1.488-4.196,2.325c0.524,0.26,1.002,0.503,1.484,0.734
		c4.267,2.053,6.525,5.384,6.416,10.18c-0.041,1.802-0.333,3.612-0.204,5.396c0.059,0.813,0.704,2.036,1.36,2.261
		c1.348,0.461,1.39-0.825,1.708-1.81c0.177-0.549,1.056-0.872,1.619-1.297c0.355,0.623,1.04,1.265,1.004,1.865
		c-0.1,1.697-1.241,2.731-2.799,3.305c-3.294,1.212-7.121-0.409-8.183-3.747c-0.616-1.939-0.891-4.054-0.929-6.098
		c-0.146-7.835-1.464-9.188-9.33-9.106C287.895,75.16,287.308,75.205,286.517,75.242z M286.574,58.697c0,4.727,0,9.151,0,13.551
		c4.431,0.739,8.256-0.333,9.782-2.678c1.433-2.203,1.641-6.527,0.128-8.381C293.874,57.989,290.202,58.697,286.574,58.697z"/>
	<path d="M119.462,90.504c1.48,0,2.929,0.015,4.378-0.005c1.222-0.016,1.945,0.498,1.854,1.779c-0.089,1.25-0.951,1.37-2.007,1.36
		c-4.059-0.04-8.12-0.031-12.179,0.008c-1.083,0.01-2.069-0.266-1.853-1.445c0.118-0.649,1.04-1.506,1.713-1.626
		c1.414-0.25,2.903-0.076,4.522-0.076c0-10.538,0-20.987,0-31.731c-1.384,0-2.757-0.035-4.125,0.011
		c-1.201,0.041-2.265-0.165-2.196-1.623c0.066-1.406,1.034-1.563,2.298-1.455c2.524,0.215,5.078,0.445,7.594,0.275
		c2.108-0.141,3.361,0.654,4.484,2.287c4.962,7.209,9.989,14.374,14.995,21.552c0.377,0.541,0.783,1.061,1.449,1.962
		c0-7.879,0-15.331,0-23.007c-1.453,0-2.901-0.025-4.348,0.007c-1.205,0.027-1.991-0.39-1.876-1.716
		c0.117-1.355,1.026-1.396,2.169-1.374c3.928,0.076,7.86,0.074,11.787-0.012c1.187-0.026,2.037,0.146,2.113,1.459
		c0.077,1.341-0.794,1.674-1.961,1.647c-1.393-0.033-2.787-0.007-4.516-0.007c0,0.88,0,1.649,0,2.417
		c0,10.024,0.03,20.049-0.047,30.072c-0.007,0.994-0.376,2.476-1.067,2.869c-1.312,0.746-2.098-0.623-2.784-1.606
		c-6.452-9.265-12.895-18.536-19.342-27.805c-0.266-0.382-0.548-0.753-1.055-1.446C119.462,72.53,119.462,81.447,119.462,90.504z"/>
	<path d="M670.008,90.5c0-10.666,0-21.068,0-31.732c-1.735,0-3.379-0.034-5.022,0.011c-1.219,0.034-2.257-0.221-2.139-1.671
		c0.114-1.392,1.116-1.413,2.35-1.406c8.271,0.047,16.545,0.037,24.815-0.1c2.439-0.04,2.792,0.082,2.867,2.554
		c0.081,2.669,0.209,5.336,0.332,8.003c0.047,1.008-0.058,2.128-1.306,1.95c-0.601-0.087-1.46-1.129-1.521-1.799
		c-0.622-6.931-1.389-7.683-8.323-7.674c-1.722,0.003-3.443,0-5.303,0c0,4.646,0,9.083,0,13.516c4.422,1.012,5.866,0.073,7.05-4.429
		c0.116-0.443,0.739-0.754,1.127-1.126c0.314,0.425,0.892,0.846,0.9,1.276c0.069,4.003,0.067,8.008-0.003,12.011
		c-0.007,0.43-0.582,0.85-0.892,1.274c-0.387-0.373-1.007-0.683-1.126-1.128c-1.219-4.539-2.169-5.209-7.028-4.623
		c0,5.01,0,10.044,0,15.527c3.843-0.169,7.686-0.212,11.503-0.558c1.956-0.178,2.912-1.791,3.243-3.621
		c0.249-1.374,0.163-2.816,0.495-4.162c0.139-0.56,0.978-0.947,1.499-1.413c0.428,0.48,1.223,0.959,1.224,1.44
		c0.003,3.202-0.15,6.406-0.285,9.607c-0.058,1.362-0.976,1.516-2.111,1.484c-6.207-0.171-12.416-0.355-18.624-0.42
		c-2.864-0.031-5.733,0.156-8.594,0.327c-1.192,0.071-2.268,0.02-2.296-1.456c-0.027-1.402,0.983-1.705,2.203-1.672
		C666.63,90.532,668.216,90.5,670.008,90.5z"/>
	<path d="M388.74,78.429c0,4.115,0,8.012,0,12.069c1.698,0,3.278,0.025,4.856-0.008c1.191-0.025,2.227,0.192,2.221,1.638
		c-0.007,1.513-1.074,1.503-2.257,1.493c-5.462-0.047-10.925-0.042-16.387,0.01c-1.184,0.011-2.232,0.013-2.237-1.511
		c-0.006-1.473,1.016-1.656,2.207-1.626c1.576,0.04,3.155,0.01,4.85,0.01c0-10.625,0-21.067,0-31.728
		c-1.751,0-3.398-0.03-5.045,0.01c-1.145,0.028-2.057-0.214-2.013-1.578c0.047-1.462,0.991-1.576,2.234-1.526
		c4.13,0.168,8.272,0.101,12.396,0.348c3.441,0.207,6.97,0.329,10.267,1.208c4.971,1.326,7.714,5.151,7.794,9.731
		c0.083,4.706-2.598,8.548-7.56,10.142c-2.438,0.784-5.084,0.957-7.651,1.292C391.254,78.556,390.053,78.429,388.74,78.429z
		 M388.736,75.841c4.038-0.113,8.265,0.978,11.106-2.955c1.899-2.63,1.849-9.036-0.127-11.499c-2.918-3.638-7.031-2.627-10.98-2.688
		C388.736,64.5,388.736,70.073,388.736,75.841z"/>
	<path d="M182.98,90.5c1.697,0,3.286,0.031,4.872-0.01c1.203-0.031,2.211,0.195,2.208,1.645c-0.004,1.535-1.072,1.496-2.25,1.484
		c-5.465-0.051-10.93-0.049-16.396-0.002c-1.096,0.009-2.118,0.043-2.217-1.329c-0.1-1.395,0.802-1.823,2.066-1.798
		c1.591,0.032,3.184,0.007,4.943,0.007c0-10.584,0-21.086,0-31.669c-2.196,0-4.333-0.208-6.409,0.056
		c-2.284,0.291-3.458,1.949-3.824,4.755c-0.138,1.055,0.061,2.185-0.236,3.178c-0.169,0.569-1.026,0.933-1.572,1.39
		c-0.4-0.52-1.144-1.04-1.144-1.561c-0.001-3.136,0.166-6.272,0.284-9.408c0.047-1.25,0.708-1.727,1.952-1.701
		c7.674,0.16,15.348,0.31,23.024,0.394c1.794,0.02,3.595-0.198,5.387-0.362c1.322-0.121,2.235,0.144,2.294,1.721
		c0.112,3.001,0.266,6.001,0.431,9c0.06,1.081-0.239,2.049-1.438,1.839c-0.57-0.101-1.356-1.054-1.414-1.681
		c-0.664-7.119-1.453-7.872-8.634-7.807c-0.592,0.006-1.184,0.05-1.925,0.084C182.98,69.342,182.98,79.856,182.98,90.5z"/>
	<path d="M480.931,90.501c0-10.686,0-21.079,0-31.73c-1.664,0-3.24-0.027-4.815,0.008c-1.241,0.028-2.414-0.068-2.283-1.709
		c0.118-1.472,1.191-1.387,2.37-1.373c5.398,0.065,10.797,0.055,16.195-0.018c1.195-0.016,2.232-0.037,2.301,1.451
		c0.07,1.493-0.975,1.671-2.166,1.646c-1.588-0.034-3.176-0.008-4.904-0.008c0,10.676,0,21.189,0,31.67
		c4.132,0,8.244,0.205,12.322-0.083c2.181-0.154,3.08-2.153,3.388-4.198c0.178-1.184,0.034-2.435,0.343-3.573
		c0.154-0.566,0.999-0.944,1.533-1.407c0.406,0.503,1.161,1.005,1.159,1.507c-0.008,3.202-0.164,6.405-0.313,9.605
		c-0.065,1.391-1.043,1.446-2.149,1.422c-7.606-0.165-15.212-0.319-22.819-0.413c-1.728-0.021-3.462,0.184-5.189,0.334
		c-1.152,0.1-2.063-0.134-2.088-1.482c-0.025-1.297,0.813-1.683,1.992-1.658C477.458,90.526,479.111,90.501,480.931,90.501z"/>
	<path d="M638.05,58.772c0,10.7,0,21.147,0,31.728c1.788,0,3.441,0.021,5.093-0.007c1.175-0.02,1.996,0.36,1.98,1.67
		c-0.017,1.397-0.952,1.482-2.081,1.475c-5.596-0.038-11.192-0.033-16.788,0.005c-1.053,0.007-1.917-0.111-1.998-1.363
		c-0.083-1.279,0.639-1.791,1.858-1.778c1.661,0.018,3.322,0.005,5.151,0.005c0-10.516,0-20.962,0-31.733
		c-1.567,0-3.201-0.028-4.834,0.009c-1.186,0.027-2.233-0.128-2.174-1.628c0.059-1.486,1.08-1.487,2.282-1.473
		c5.463,0.066,10.927,0.067,16.39,0.002c1.14-0.014,2.06,0.027,2.179,1.371c0.131,1.489-0.843,1.753-2.067,1.728
		C641.447,58.747,639.85,58.772,638.05,58.772z"/>
	<path fill="#FFFFFF" d="M388.736,75.841c0-5.769,0-11.341,0-17.142c3.949,0.06,8.062-0.95,10.98,2.688
		c1.976,2.463,2.026,8.87,0.127,11.499C397.002,76.819,392.774,75.728,388.736,75.841z"/>
</g>
</svg>
