<?xml version="1.0" encoding="utf-8"?>
<!-- Generator: Adobe Illustrator 17.0.0, SVG Export Plug-In . SVG Version: 6.00 Build 0)  -->
<!DOCTYPE svg PUBLIC "-//W3C//DTD SVG 1.1//EN" "http://www.w3.org/Graphics/SVG/1.1/DTD/svg11.dtd">
<svg version="1.1" id="Layer_1" xmlns="http://www.w3.org/2000/svg" xmlns:xlink="http://www.w3.org/1999/xlink" x="0px" y="0px"
	 width="750px" height="150px" viewBox="0 0 750 150" enable-background="new 0 0 750 150" xml:space="preserve">
<g>
	<path fill="#FFFFFF" d="M55.055,53.67c93.218,0,186.437,0,279.655,0c-2.591,1.164-5.459,1.941-7.725,3.561
		c-8.959,6.403-11.006,20.683-4.569,30.227c7.157,10.613,22.589,10.886,30.1,0.533c5.18-7.14,5.38-18.471,0.537-25.863
		c-3.054-4.661-7.459-7.198-12.741-8.458c33.61,0,67.221,0,100.831,0c-2.373,0.97-4.956,1.611-7.084,2.967
		c-10.385,6.618-12.27,23.67-3.777,32.901c7.3,7.933,19.881,8.052,27.016,0.254c7.052-7.706,7.338-21.366,0.705-29.448
		c-2.969-3.618-6.91-5.457-11.259-6.675c33.323,0,66.646,0,99.969,0c-2.423,1.025-5.062,1.72-7.231,3.133
		c-9.098,5.928-11.667,19.961-5.659,29.867c6.467,10.662,21.171,12.023,29.483,2.728c6.923-7.742,6.823-21.874-0.124-29.617
		c-2.956-3.294-6.718-5.011-10.866-6.111c16.949,0,33.898,0,50.846,0c-2.368,0.972-4.972,1.59-7.061,2.981
		c-7.425,4.947-9.594,12.324-8.905,20.822c1.058,13.051,12.984,21.073,25.477,17.149c4.274-1.343,7.169-4.132,8.505-8.417
		c0.484-1.553,0.708-3.187,1.072-4.884c1.309,0,2.591-0.025,3.871,0.007c1.211,0.03,1.997-0.449,1.926-1.722
		c-0.068-1.223-0.812-1.61-2.057-1.593c-5.008,0.07-10.018,0.067-15.027,0.002c-1.214-0.016-2,0.282-2.086,1.549
		c-0.086,1.282,0.659,1.785,1.879,1.764c1.341-0.023,2.682-0.005,3.995-0.005c0.414,2.86-0.162,6.258-1.698,8.117
		c-0.873,1.055-2.087,2.051-3.353,2.52c-5.266,1.952-11.171-0.667-13.053-5.977c-2.596-7.324-2.541-14.826-0.166-22.188
		c1.523-4.718,4.899-6.839,9.815-6.874c4.606-0.033,8.662,2.574,10.255,6.817c0.543,1.446,0.529,3.092,0.974,4.586
		c0.182,0.613,0.904,1.066,1.38,1.591c0.554-0.52,1.572-1.025,1.59-1.562c0.136-4.229,0.129-8.465,0.022-12.696
		c-0.013-0.527-0.853-1.42-1.343-1.444c-0.539-0.026-1.245,0.665-1.642,1.214c-0.365,0.506-0.415,1.238-0.558,1.721
		c-2.762-1.235-5.271-2.357-7.779-3.478c36.914,0,73.828,0,110.742,0c0,14.22,0,28.44,0,42.659c-229.958,0-459.916,0-689.874,0
		c0-14.22,0-28.44,0-42.659c7.756,0,15.512,0,23.269,0C48.363,65.04,43.323,76.379,38.48,87.802
		c-1.131,2.667-2.145,4.734-5.589,3.908c-1.251-0.3-2.077,0.436-1.983,1.841c0.103,1.532,1.138,1.479,2.322,1.457
		c3.572-0.067,7.148-0.076,10.719,0.016c1.228,0.031,2.289-0.072,2.374-1.466c0.088-1.445-0.887-1.962-2.263-1.9
		c-1.154,0.052-2.312,0.011-3.751,0.011c1.18-2.755,2.133-5.149,3.257-7.46c0.228-0.469,1.096-0.877,1.675-0.886
		c4.594-0.073,9.19-0.066,13.784-0.011c0.545,0.006,1.387,0.307,1.577,0.713c1.14,2.428,2.129,4.927,3.271,7.648
		c-1.475,0-2.606-0.228-3.573,0.073c-0.751,0.234-1.721,1.055-1.84,1.745c-0.213,1.238,0.809,1.658,1.994,1.549
		c1.57-0.146,3.145-0.383,4.715-0.364c3.294,0.042,6.588,0.207,9.88,0.362c1.16,0.055,2.229-0.245,2.005-1.524
		c-0.122-0.696-1.101-1.355-1.836-1.788c-0.413-0.243-1.123-0.032-1.689,0.047c-1.549,0.217-2.425-0.281-3.07-1.868
		c-3.187-7.843-6.509-15.631-9.821-23.423C58.816,62.195,56.919,57.94,55.055,53.67z M206.783,91.672
		c-1.992,0-3.71,0.035-5.425-0.012c-1.271-0.035-2.171,0.377-2.168,1.76c0.003,1.452,0.993,1.645,2.226,1.634
		c5.441-0.046,10.883-0.059,16.323-0.006c1.249,0.012,2.192-0.154,2.22-1.613c0.027-1.421-0.877-1.808-2.133-1.774
		c-1.25,0.034-2.502,0.007-3.705,0.007c0-5.541,0-10.804,0-16.013c5.831,0,11.466,0,17.083,0c0,5.44,0,10.704,0,16.016
		c-1.331,0-2.474,0.03-3.614-0.008c-1.326-0.044-2.334,0.294-2.26,1.861c0.071,1.506,1.124,1.52,2.31,1.51
		c5.369-0.048,10.739-0.056,16.109-0.007c1.195,0.011,2.24-0.004,2.319-1.498c0.082-1.557-0.916-1.901-2.251-1.869
		c-1.755,0.042-3.511,0.01-5.312,0.01c0-11.497,0-22.732,0-34.091c1.954,0,3.74-0.025,5.526,0.008
		c1.281,0.024,2.135-0.382,2.032-1.826c-0.093-1.303-0.916-1.556-2.098-1.545c-5.513,0.048-11.026,0.046-16.538,0.002
		c-1.175-0.009-2.013,0.231-2.094,1.546c-0.078,1.268,0.595,1.829,1.835,1.814c1.337-0.016,2.674-0.004,4.116-0.004
		c0,4.903,0,9.538,0,14.27c-5.799,0-11.489,0-17.213,0c0-4.812,0-9.444,0-14.271c1.333,0,2.536-0.034,3.736,0.009
		c1.237,0.045,2.206-0.244,2.153-1.708c-0.057-1.582-1.082-1.639-2.411-1.618c-5.298,0.083-10.599,0.078-15.897-0.017
		c-1.333-0.024-2.39,0.082-2.462,1.602c-0.075,1.59,1.083,1.775,2.358,1.745c1.7-0.039,3.402-0.01,5.236-0.01
		C206.783,69.03,206.783,80.259,206.783,91.672z M279.94,75.273c0.85-0.04,1.481-0.089,2.113-0.096
		c8.451-0.088,9.868,1.366,10.025,9.785c0.041,2.195,0.335,4.468,0.998,6.552c1.14,3.587,5.253,5.327,8.793,4.026
		c1.674-0.616,2.901-1.727,3.008-3.551c0.038-0.645-0.697-1.335-1.079-2.004c-0.605,0.457-1.551,0.804-1.74,1.394
		c-0.341,1.058-0.386,2.439-1.835,1.945c-0.705-0.241-1.398-1.555-1.461-2.429c-0.139-1.917,0.176-3.862,0.219-5.798
		c0.116-5.154-2.31-8.733-6.894-10.939c-0.519-0.25-1.032-0.51-1.595-0.789c1.646-0.899,3.19-1.543,4.509-2.498
		c4.833-3.499,5.39-9.325,1.134-12.813c-1.451-1.19-3.294-2.211-5.107-2.582c-3.063-0.627-6.24-0.807-9.379-0.934
		c-4.654-0.189-9.318-0.118-13.974-0.268c-1.28-0.041-2.411-0.093-2.529,1.49c-0.133,1.781,1.142,1.848,2.466,1.818
		c1.689-0.038,3.38-0.009,5.066-0.009c0,11.545,0,22.774,0,34.091c-1.81,0-3.446,0.029-5.081-0.009
		c-1.362-0.031-2.546,0.184-2.448,1.894c0.096,1.668,1.327,1.47,2.538,1.46c5.801-0.047,11.602-0.052,17.403,0.005
		c1.243,0.012,2.434,0.122,2.496-1.516c0.058-1.521-0.961-1.879-2.299-1.839c-1.755,0.053-3.512,0.013-5.346,0.013
		C279.94,86.114,279.94,80.82,279.94,75.273z M100.433,91.673c0-9.732,0-19.314,0-29.258c0.544,0.745,0.848,1.143,1.134,1.554
		c6.928,9.959,13.852,19.921,20.784,29.877c0.737,1.058,1.58,2.528,2.991,1.726c0.743-0.423,1.139-2.015,1.147-3.083
		c0.081-10.771,0.05-21.542,0.05-32.313c0-0.825,0-1.65,0-2.597c1.857,0,3.356-0.027,4.853,0.008
		c1.254,0.029,2.191-0.329,2.107-1.77c-0.082-1.411-0.996-1.596-2.271-1.568c-4.221,0.094-8.445,0.095-12.666,0.013
		c-1.228-0.024-2.205,0.02-2.331,1.476c-0.124,1.425,0.721,1.874,2.016,1.844c1.555-0.035,3.111-0.008,4.672-0.008
		c0,8.247,0,16.255,0,24.722c-0.716-0.967-1.152-1.527-1.557-2.108c-5.38-7.713-10.781-15.412-16.113-23.158
		c-1.207-1.754-2.554-2.608-4.818-2.457c-2.703,0.181-5.448-0.065-8.16-0.296c-1.358-0.116-2.398,0.053-2.469,1.563
		c-0.074,1.567,1.07,1.787,2.36,1.744c1.471-0.05,2.946-0.012,4.433-0.012c0,11.545,0,22.772,0,34.096
		c-1.741,0-3.34-0.188-4.859,0.082c-0.724,0.128-1.713,1.049-1.841,1.747c-0.232,1.267,0.827,1.564,1.991,1.553
		c4.362-0.042,8.725-0.052,13.087-0.009c1.135,0.011,2.062-0.118,2.157-1.461c0.098-1.378-0.679-1.929-1.992-1.912
		C103.58,91.688,102.023,91.673,100.433,91.673z M692.015,91.669c-1.925,0-3.629,0.034-5.331-0.011
		c-1.311-0.034-2.396,0.291-2.367,1.797c0.031,1.585,1.186,1.64,2.467,1.564c3.075-0.183,6.158-0.384,9.235-0.351
		c6.672,0.071,13.342,0.268,20.012,0.451c1.219,0.034,2.206-0.131,2.268-1.595c0.145-3.44,0.308-6.882,0.306-10.323
		c0-0.516-0.855-1.031-1.315-1.547c-0.56,0.5-1.462,0.916-1.611,1.518c-0.358,1.445-0.265,2.996-0.532,4.472
		c-0.356,1.967-1.383,3.701-3.485,3.891c-4.101,0.372-8.231,0.418-12.36,0.6c0-5.891,0-11.301,0-16.684
		c5.221-0.628,6.242,0.091,7.552,4.968c0.128,0.478,0.794,0.812,1.21,1.212c0.334-0.456,0.951-0.907,0.959-1.369
		c0.076-4.301,0.077-8.604,0.003-12.906c-0.008-0.462-0.63-0.914-0.967-1.371c-0.417,0.4-1.086,0.733-1.211,1.21
		c-1.273,4.837-2.825,5.846-7.576,4.759c0-4.763,0-9.531,0-14.523c1.998,0,3.848,0.002,5.698,0c7.45-0.01,8.275,0.798,8.943,8.246
		c0.065,0.721,0.988,1.841,1.634,1.933c1.342,0.193,1.453-1.011,1.403-2.095c-0.131-2.866-0.269-5.732-0.357-8.6
		c-0.081-2.656-0.461-2.788-3.081-2.744c-8.887,0.147-17.777,0.158-26.665,0.107c-1.326-0.008-2.403,0.014-2.525,1.511
		c-0.127,1.558,0.988,1.832,2.298,1.796c1.765-0.049,3.533-0.012,5.396-0.012C692.015,69.031,692.015,80.208,692.015,91.669z
		 M389.783,78.698c1.411,0,2.701,0.136,3.951-0.028c2.758-0.36,5.601-0.546,8.221-1.388c5.331-1.713,8.212-5.842,8.124-10.898
		c-0.086-4.921-3.033-9.031-8.375-10.456c-3.543-0.945-7.335-1.076-11.032-1.298c-4.431-0.267-8.882-0.193-13.32-0.374
		c-1.336-0.055-2.351,0.069-2.401,1.64c-0.046,1.466,0.933,1.726,2.163,1.696c1.769-0.044,3.54-0.011,5.421-0.011
		c0,11.456,0,22.676,0,34.093c-1.822,0-3.518,0.032-5.212-0.011c-1.28-0.032-2.378,0.164-2.372,1.747
		c0.006,1.638,1.133,1.636,2.404,1.624c5.869-0.055,11.739-0.061,17.608-0.011c1.271,0.011,2.419,0.022,2.425-1.604
		c0.007-1.555-1.107-1.787-2.387-1.76c-1.696,0.035-3.393,0.009-5.218,0.009C389.783,87.308,389.783,83.121,389.783,78.698z
		 M168.686,91.669c0-11.439,0-22.735,0-34.143c0.796-0.036,1.432-0.084,2.068-0.09c7.718-0.07,8.565,0.739,9.278,8.389
		c0.063,0.673,0.906,1.698,1.519,1.806c1.288,0.226,1.609-0.813,1.545-1.976c-0.176-3.223-0.342-6.446-0.463-9.671
		c-0.063-1.694-1.045-1.979-2.465-1.849c-1.926,0.176-3.861,0.411-5.789,0.389c-8.247-0.09-16.494-0.251-24.74-0.423
		c-1.336-0.028-2.046,0.486-2.097,1.828c-0.127,3.37-0.306,6.739-0.305,10.109c0,0.559,0.799,1.118,1.229,1.677
		c0.588-0.491,1.507-0.882,1.689-1.494c0.318-1.068,0.106-2.281,0.254-3.415c0.393-3.015,1.655-4.796,4.109-5.109
		c2.231-0.285,4.527-0.06,6.887-0.06c0,11.372,0,22.657,0,34.03c-1.889,0-3.601,0.026-5.311-0.008
		c-1.357-0.027-2.327,0.433-2.22,1.932c0.106,1.474,1.204,1.438,2.382,1.428c5.872-0.052,11.746-0.053,17.618,0.002
		c1.266,0.012,2.414,0.054,2.418-1.595c0.003-1.557-1.08-1.801-2.373-1.768C172.217,91.703,170.51,91.669,168.686,91.669z
		 M488.845,91.67c-1.955,0-3.732,0.027-5.506-0.009c-1.266-0.026-2.167,0.388-2.14,1.782c0.028,1.449,1.006,1.7,2.244,1.593
		c1.856-0.161,3.719-0.382,5.576-0.359c8.174,0.1,16.347,0.266,24.52,0.444c1.188,0.026,2.24-0.033,2.309-1.528
		c0.16-3.439,0.327-6.88,0.336-10.321c0.001-0.538-0.81-1.079-1.245-1.619c-0.573,0.498-1.482,0.904-1.647,1.512
		c-0.332,1.222-0.178,2.566-0.369,3.839c-0.33,2.196-1.296,4.345-3.64,4.511c-4.381,0.309-8.8,0.089-13.24,0.089
		c0-11.262,0-22.558,0-34.031c1.856,0,3.563-0.028,5.269,0.009c1.278,0.027,2.402-0.164,2.327-1.769
		c-0.075-1.599-1.189-1.576-2.473-1.559c-5.8,0.077-11.602,0.089-17.402,0.019c-1.267-0.015-2.42-0.107-2.547,1.475
		c-0.141,1.763,1.119,1.866,2.453,1.836c1.692-0.039,3.386-0.009,5.174-0.009C488.845,69.02,488.845,80.188,488.845,91.67z
		 M657.675,57.576c1.934,0,3.649-0.027,5.364,0.009c1.315,0.027,2.361-0.257,2.221-1.857c-0.127-1.444-1.116-1.488-2.341-1.473
		c-5.87,0.07-11.742,0.069-17.612-0.002c-1.291-0.016-2.389-0.014-2.452,1.583c-0.063,1.611,1.062,1.778,2.336,1.749
		c1.754-0.04,3.51-0.01,5.194-0.01c0,11.574,0,22.799,0,34.098c-1.965,0-3.75,0.014-5.535-0.005
		c-1.309-0.014-2.086,0.537-1.996,1.911c0.088,1.347,1.015,1.473,2.147,1.465c6.013-0.04,12.026-0.046,18.039-0.005
		c1.213,0.008,2.218-0.084,2.236-1.585c0.017-1.406-0.866-1.816-2.128-1.794c-1.775,0.031-3.552,0.008-5.473,0.008
		C657.675,80.298,657.675,69.074,657.675,57.576z"/>
	<path d="M340.312,53.67c5.281,1.261,9.687,3.798,12.741,8.458c4.843,7.392,4.643,18.723-0.537,25.863
		c-7.511,10.353-22.943,10.08-30.1-0.533c-6.436-9.544-4.39-23.824,4.569-30.227c2.266-1.619,5.134-2.397,7.725-3.561
		C336.578,53.67,338.445,53.67,340.312,53.67z M349.005,74.512c-0.539-3.4-0.793-7.08-1.754-10.564
		c-1.371-4.969-4.615-7.065-9.76-7.04c-4.921,0.024-8.204,2.264-9.566,7.078c-1.971,6.967-1.987,14.057-0.099,21.04
		c1.407,5.205,4.728,7.506,9.932,7.457c5.133-0.048,8.479-2.504,9.744-7.706C348.292,81.531,348.496,78.142,349.005,74.512z"/>
	<path d="M446.745,53.67c4.349,1.218,8.29,3.057,11.259,6.675c6.633,8.082,6.347,21.741-0.705,29.448
		c-7.135,7.797-19.717,7.679-27.016-0.254c-8.494-9.231-6.609-26.284,3.777-32.901c2.128-1.356,4.711-1.997,7.084-2.967
		C443.011,53.67,444.878,53.67,446.745,53.67z M432.448,74.727c0.584,3.609,0.856,7.285,1.821,10.77
		c1.332,4.808,4.683,6.998,9.608,6.995c4.95-0.003,8.259-2.208,9.646-6.979c2.086-7.177,2.093-14.464,0.003-21.644
		c-1.409-4.839-4.76-7.032-9.859-6.965c-4.911,0.064-8.227,2.353-9.475,7.164C433.301,67.505,433.018,71.1,432.448,74.727z"/>
	<path d="M552.316,53.67c4.148,1.1,7.91,2.817,10.866,6.111c6.947,7.742,7.047,21.875,0.124,29.617
		c-8.311,9.295-23.016,7.935-29.483-2.728c-6.009-9.906-3.439-23.939,5.659-29.867c2.17-1.414,4.808-2.108,7.231-3.133
		C548.582,53.67,550.449,53.67,552.316,53.67z M561.017,74.759c-0.629-3.75-0.926-7.572-1.962-11.182
		c-1.34-4.67-4.644-6.688-9.607-6.668c-4.824,0.019-8.017,2.038-9.433,6.642c-2.267,7.371-2.261,14.881-0.014,22.253
		c1.427,4.681,4.663,6.693,9.629,6.682c4.845-0.01,8.151-2.154,9.48-6.865C560.094,82.142,560.393,78.469,561.017,74.759z"/>
	<path d="M609.195,53.67c2.509,1.122,5.017,2.244,7.779,3.478c0.144-0.483,0.194-1.215,0.558-1.721
		c0.396-0.549,1.102-1.24,1.642-1.214c0.49,0.024,1.33,0.917,1.343,1.444c0.107,4.23,0.114,8.467-0.022,12.696
		c-0.017,0.537-1.035,1.042-1.59,1.562c-0.476-0.526-1.198-0.978-1.38-1.591c-0.445-1.494-0.431-3.141-0.974-4.586
		c-1.593-4.243-5.649-6.85-10.255-6.817c-4.916,0.035-8.292,2.156-9.815,6.874c-2.376,7.362-2.43,14.864,0.166,22.188
		c1.882,5.31,7.787,7.929,13.053,5.977c1.266-0.469,2.48-1.464,3.353-2.52c1.536-1.858,2.112-5.257,1.698-8.117
		c-1.313,0-2.655-0.018-3.995,0.005c-1.22,0.021-1.965-0.482-1.879-1.764c0.085-1.267,0.871-1.564,2.086-1.549
		c5.008,0.065,10.019,0.068,15.027-0.002c1.245-0.017,1.989,0.37,2.057,1.593c0.071,1.273-0.716,1.752-1.926,1.722
		c-1.28-0.032-2.562-0.007-3.871-0.007c-0.364,1.697-0.588,3.331-1.072,4.884c-1.336,4.284-4.231,7.074-8.505,8.417
		c-12.493,3.924-24.419-4.098-25.477-17.149c-0.689-8.498,1.48-15.875,8.905-20.822c2.089-1.392,4.693-2.009,7.061-2.981
		C605.173,53.67,607.184,53.67,609.195,53.67z"/>
	<path d="M55.055,53.67c1.863,4.27,3.761,8.525,5.583,12.812c3.312,7.791,6.635,15.58,9.821,23.423
		c0.645,1.587,1.52,2.085,3.07,1.868c0.566-0.079,1.276-0.29,1.689-0.047c0.735,0.433,1.714,1.092,1.836,1.788
		c0.224,1.28-0.845,1.579-2.005,1.524c-3.292-0.155-6.586-0.32-9.88-0.362c-1.57-0.02-3.145,0.218-4.715,0.364
		c-1.185,0.11-2.207-0.311-1.994-1.549c0.119-0.69,1.089-1.511,1.84-1.745c0.967-0.301,2.098-0.073,3.573-0.073
		c-1.143-2.721-2.132-5.22-3.271-7.648c-0.19-0.405-1.032-0.706-1.577-0.713c-4.594-0.055-9.19-0.062-13.784,0.011
		c-0.58,0.009-1.447,0.417-1.675,0.886c-1.124,2.311-2.076,4.705-3.257,7.46c1.439,0,2.597,0.041,3.751-0.011
		c1.376-0.062,2.351,0.455,2.263,1.9c-0.085,1.394-1.145,1.497-2.374,1.466c-3.571-0.091-7.147-0.082-10.719-0.016
		c-1.184,0.022-2.219,0.075-2.322-1.457c-0.095-1.405,0.731-2.141,1.983-1.841c3.444,0.826,4.458-1.242,5.589-3.908
		c4.843-11.423,9.883-22.762,14.852-34.132C53.906,53.67,54.481,53.67,55.055,53.67z M58.859,79.766
		c-2.232-5.359-4.305-10.338-6.585-15.814c-2.413,5.56-4.602,10.604-6.864,15.814C50.059,79.766,54.248,79.766,58.859,79.766z"/>
	<path d="M206.783,91.672c0-11.412,0-22.642,0-34.094c-1.833,0-3.535-0.029-5.236,0.01c-1.275,0.029-2.433-0.155-2.358-1.745
		c0.072-1.52,1.129-1.626,2.462-1.602c5.298,0.096,10.599,0.101,15.897,0.017c1.329-0.021,2.355,0.035,2.411,1.618
		c0.053,1.464-0.916,1.753-2.153,1.708c-1.2-0.044-2.403-0.009-3.736-0.009c0,4.827,0,9.459,0,14.271c5.724,0,11.414,0,17.213,0
		c0-4.732,0-9.367,0-14.27c-1.442,0-2.779-0.013-4.116,0.004c-1.24,0.015-1.913-0.546-1.835-1.814
		c0.081-1.315,0.919-1.555,2.094-1.546c5.513,0.044,11.026,0.045,16.538-0.002c1.182-0.01,2.006,0.243,2.098,1.545
		c0.103,1.444-0.751,1.85-2.032,1.826c-1.786-0.033-3.572-0.008-5.526-0.008c0,11.359,0,22.594,0,34.091
		c1.802,0,3.558,0.032,5.312-0.01c1.334-0.032,2.333,0.312,2.251,1.869c-0.079,1.494-1.125,1.509-2.319,1.498
		c-5.369-0.049-10.739-0.041-16.109,0.007c-1.185,0.011-2.239-0.003-2.31-1.51c-0.074-1.567,0.933-1.905,2.26-1.861
		c1.14,0.038,2.283,0.008,3.614,0.008c0-5.312,0-10.575,0-16.016c-5.616,0-11.252,0-17.083,0c0,5.209,0,10.473,0,16.013
		c1.203,0,2.455,0.026,3.705-0.007c1.257-0.034,2.161,0.354,2.133,1.774c-0.028,1.459-0.971,1.626-2.22,1.613
		c-5.441-0.053-10.883-0.04-16.323,0.006c-1.233,0.01-2.223-0.183-2.226-1.634c-0.003-1.383,0.897-1.794,2.168-1.76
		C203.073,91.707,204.791,91.672,206.783,91.672z"/>
	<path d="M279.94,75.273c0,5.546,0,10.841,0,16.398c1.834,0,3.592,0.04,5.346-0.013c1.338-0.04,2.357,0.318,2.299,1.839
		c-0.062,1.638-1.253,1.528-2.496,1.516c-5.801-0.056-11.602-0.051-17.403-0.005c-1.211,0.01-2.442,0.208-2.538-1.46
		c-0.098-1.711,1.087-1.926,2.448-1.894c1.634,0.038,3.27,0.009,5.081,0.009c0-11.317,0-22.546,0-34.091
		c-1.687,0-3.377-0.029-5.066,0.009c-1.325,0.03-2.599-0.038-2.466-1.818c0.118-1.583,1.249-1.532,2.529-1.49
		c4.656,0.151,9.32,0.079,13.974,0.268c3.139,0.127,6.315,0.307,9.379,0.934c1.813,0.371,3.656,1.392,5.107,2.582
		c4.256,3.488,3.699,9.315-1.134,12.813c-1.319,0.955-2.863,1.599-4.509,2.498c0.563,0.279,1.077,0.54,1.595,0.789
		c4.585,2.206,7.011,5.785,6.894,10.939c-0.044,1.936-0.358,3.881-0.219,5.798c0.063,0.874,0.756,2.188,1.461,2.429
		c1.449,0.495,1.494-0.886,1.835-1.945c0.19-0.59,1.135-0.937,1.74-1.394c0.382,0.669,1.117,1.359,1.079,2.004
		c-0.107,1.823-1.334,2.935-3.008,3.551c-3.539,1.302-7.652-0.439-8.793-4.026c-0.662-2.083-0.957-4.356-0.998-6.552
		c-0.157-8.419-1.573-9.873-10.025-9.785C281.421,75.185,280.79,75.234,279.94,75.273z M280.001,57.495c0,5.079,0,9.833,0,14.561
		c4.761,0.794,8.871-0.358,10.511-2.878c1.54-2.367,1.763-7.013,0.137-9.006C287.846,56.735,283.9,57.495,280.001,57.495z"/>
	<path d="M100.433,91.673c1.59,0,3.147,0.016,4.704-0.005c1.313-0.017,2.09,0.535,1.992,1.912c-0.096,1.343-1.022,1.472-2.157,1.461
		c-4.362-0.043-8.725-0.033-13.087,0.009c-1.164,0.011-2.223-0.286-1.991-1.553c0.127-0.697,1.117-1.618,1.841-1.747
		c1.519-0.269,3.119-0.082,4.859-0.082c0-11.324,0-22.551,0-34.096c-1.487,0-2.962-0.038-4.433,0.012
		c-1.29,0.044-2.434-0.177-2.36-1.744c0.071-1.511,1.111-1.679,2.469-1.563c2.712,0.231,5.457,0.478,8.16,0.296
		c2.265-0.152,3.611,0.703,4.818,2.457c5.332,7.746,10.733,15.445,16.113,23.158c0.405,0.581,0.841,1.14,1.557,2.108
		c0-8.466,0-16.474,0-24.722c-1.561,0-3.117-0.027-4.672,0.008c-1.295,0.029-2.139-0.419-2.016-1.844
		c0.126-1.456,1.103-1.5,2.331-1.476c4.221,0.082,8.446,0.08,12.666-0.013c1.275-0.028,2.189,0.157,2.271,1.568
		c0.083,1.441-0.853,1.799-2.107,1.77c-1.497-0.035-2.995-0.008-4.853-0.008c0,0.946,0,1.772,0,2.597
		c0,10.771,0.032,21.543-0.05,32.313c-0.008,1.068-0.404,2.661-1.147,3.083c-1.41,0.802-2.254-0.669-2.991-1.726
		c-6.933-9.956-13.856-19.918-20.784-29.877c-0.286-0.411-0.589-0.809-1.134-1.554C100.433,72.359,100.433,81.941,100.433,91.673z"
		/>
	<path d="M692.015,91.669c0-11.461,0-22.638,0-34.097c-1.864,0-3.631-0.037-5.396,0.012c-1.31,0.036-2.425-0.238-2.298-1.796
		c0.122-1.496,1.199-1.518,2.525-1.511c8.888,0.051,17.778,0.04,26.665-0.107c2.621-0.043,3,0.088,3.081,2.744
		c0.087,2.868,0.225,5.734,0.357,8.6c0.05,1.083-0.062,2.287-1.403,2.095c-0.646-0.093-1.569-1.213-1.634-1.933
		c-0.668-7.448-1.492-8.256-8.943-8.246c-1.85,0.003-3.7,0-5.698,0c0,4.992,0,9.76,0,14.523c4.752,1.087,6.303,0.078,7.576-4.759
		c0.125-0.476,0.794-0.81,1.211-1.21c0.337,0.457,0.959,0.909,0.967,1.371c0.074,4.301,0.072,8.605-0.003,12.906
		c-0.008,0.462-0.625,0.913-0.959,1.369c-0.416-0.401-1.082-0.734-1.21-1.212c-1.31-4.877-2.331-5.597-7.552-4.968
		c0,5.383,0,10.793,0,16.684c4.129-0.182,8.259-0.228,12.36-0.6c2.102-0.191,3.129-1.924,3.485-3.891
		c0.267-1.476,0.175-3.026,0.532-4.472c0.149-0.602,1.051-1.018,1.611-1.518c0.46,0.516,1.314,1.031,1.315,1.547
		c0.003,3.441-0.161,6.883-0.306,10.323c-0.062,1.464-1.049,1.629-2.268,1.595c-6.67-0.184-13.341-0.381-20.012-0.451
		c-3.077-0.033-6.16,0.168-9.235,0.351c-1.281,0.076-2.437,0.021-2.467-1.564c-0.029-1.506,1.056-1.832,2.367-1.797
		C688.386,91.703,690.09,91.669,692.015,91.669z"/>
	<path d="M389.783,78.698c0,4.422,0,8.609,0,12.969c1.825,0,3.522,0.027,5.218-0.009c1.28-0.027,2.393,0.206,2.387,1.76
		c-0.007,1.626-1.154,1.615-2.425,1.604c-5.869-0.051-11.739-0.045-17.608,0.011c-1.272,0.012-2.398,0.014-2.404-1.624
		c-0.006-1.583,1.092-1.779,2.372-1.747c1.694,0.043,3.39,0.011,5.212,0.011c0-11.417,0-22.637,0-34.093
		c-1.881,0-3.651-0.032-5.421,0.011c-1.23,0.03-2.21-0.23-2.163-1.696c0.05-1.571,1.065-1.694,2.401-1.64
		c4.438,0.181,8.889,0.108,13.32,0.374c3.697,0.222,7.489,0.353,11.032,1.298c5.342,1.425,8.289,5.535,8.375,10.456
		c0.089,5.057-2.792,9.185-8.124,10.898c-2.62,0.842-5.463,1.028-8.221,1.388C392.484,78.834,391.194,78.698,389.783,78.698z
		 M389.778,75.917c4.339-0.121,8.881,1.051,11.934-3.175c2.041-2.826,1.987-9.709-0.136-12.356
		c-3.135-3.909-7.555-2.823-11.798-2.888C389.778,63.731,389.778,69.719,389.778,75.917z"/>
	<path d="M168.686,91.669c1.824,0,3.531,0.033,5.235-0.011c1.293-0.033,2.376,0.21,2.373,1.768
		c-0.004,1.649-1.152,1.607-2.418,1.595c-5.872-0.055-11.745-0.053-17.618-0.002c-1.178,0.01-2.276,0.046-2.382-1.428
		c-0.107-1.499,0.862-1.959,2.22-1.932c1.71,0.034,3.421,0.008,5.311,0.008c0-11.373,0-22.658,0-34.03
		c-2.36,0-4.656-0.224-6.887,0.06c-2.454,0.313-3.716,2.094-4.109,5.109c-0.148,1.134,0.065,2.348-0.254,3.415
		c-0.182,0.611-1.102,1.003-1.689,1.494c-0.43-0.559-1.229-1.118-1.229-1.677c-0.001-3.37,0.178-6.74,0.305-10.109
		c0.051-1.343,0.761-1.856,2.097-1.828c8.246,0.172,16.492,0.333,24.74,0.423c1.928,0.021,3.863-0.213,5.789-0.389
		c1.42-0.13,2.402,0.155,2.465,1.849c0.12,3.225,0.286,6.448,0.463,9.671c0.064,1.162-0.257,2.202-1.545,1.976
		c-0.613-0.108-1.457-1.133-1.519-1.806c-0.713-7.65-1.561-8.459-9.278-8.389c-0.636,0.006-1.272,0.054-2.068,0.09
		C168.686,68.934,168.686,80.231,168.686,91.669z"/>
	<path d="M488.845,91.67c0-11.482,0-22.65,0-34.095c-1.788,0-3.482-0.029-5.174,0.009c-1.334,0.03-2.594-0.073-2.453-1.836
		c0.127-1.582,1.28-1.49,2.547-1.475c5.8,0.07,11.602,0.059,17.402-0.019c1.284-0.017,2.398-0.04,2.473,1.559
		c0.075,1.604-1.048,1.796-2.327,1.769c-1.706-0.037-3.413-0.009-5.269-0.009c0,11.472,0,22.768,0,34.031
		c4.44,0,8.858,0.22,13.24-0.089c2.344-0.165,3.31-2.314,3.64-4.511c0.191-1.272,0.037-2.616,0.369-3.839
		c0.165-0.608,1.074-1.014,1.647-1.512c0.436,0.54,1.247,1.08,1.245,1.619c-0.009,3.441-0.176,6.882-0.336,10.321
		c-0.07,1.495-1.121,1.554-2.309,1.528c-8.173-0.177-16.346-0.343-24.52-0.444c-1.857-0.023-3.72,0.198-5.576,0.359
		c-1.238,0.107-2.217-0.144-2.244-1.593c-0.027-1.394,0.874-1.808,2.14-1.782C485.113,91.697,486.89,91.67,488.845,91.67z"/>
	<path d="M657.675,57.576c0,11.498,0,22.723,0,34.093c1.921,0,3.697,0.023,5.473-0.008c1.263-0.022,2.145,0.387,2.128,1.794
		c-0.018,1.501-1.023,1.593-2.236,1.585c-6.013-0.041-12.026-0.035-18.039,0.005c-1.132,0.008-2.06-0.119-2.147-1.465
		c-0.089-1.374,0.687-1.925,1.996-1.911c1.785,0.019,3.57,0.005,5.535,0.005c0-11.3,0-22.524,0-34.098
		c-1.684,0-3.44-0.03-5.194,0.01c-1.274,0.029-2.399-0.138-2.336-1.749c0.063-1.597,1.161-1.598,2.452-1.583
		c5.87,0.071,11.742,0.072,17.612,0.002c1.225-0.015,2.214,0.029,2.341,1.473c0.141,1.6-0.906,1.884-2.221,1.857
		C661.325,57.549,659.609,57.576,657.675,57.576z"/>
	<path fill="#FFFFFF" d="M349.005,74.512c-0.51,3.63-0.714,7.019-1.503,10.265c-1.265,5.202-4.611,7.659-9.744,7.706
		c-5.204,0.048-8.524-2.253-9.932-7.457c-1.888-6.983-1.872-14.073,0.099-21.04c1.362-4.814,4.645-7.054,9.566-7.078
		c5.144-0.025,8.389,2.071,9.76,7.04C348.213,67.433,348.466,71.112,349.005,74.512z"/>
	<path fill="#FFFFFF" d="M432.448,74.727c0.571-3.627,0.853-7.222,1.745-10.659c1.248-4.811,4.564-7.1,9.475-7.164
		c5.099-0.067,8.45,2.126,9.859,6.965c2.09,7.179,2.083,14.467-0.003,21.644c-1.386,4.77-4.696,6.976-9.646,6.979
		c-4.925,0.003-8.276-2.187-9.608-6.995C433.304,82.012,433.032,78.336,432.448,74.727z"/>
	<path fill="#FFFFFF" d="M561.017,74.759c-0.624,3.71-0.923,7.383-1.905,10.863c-1.329,4.711-4.635,6.855-9.48,6.865
		c-4.966,0.01-8.202-2.002-9.629-6.682c-2.248-7.372-2.253-14.882,0.014-22.253c1.416-4.604,4.609-6.623,9.433-6.642
		c4.963-0.02,8.266,1.998,9.607,6.668C560.091,67.187,560.388,71.009,561.017,74.759z"/>
	<path fill="#FFFFFF" d="M58.859,79.766c-4.61,0-8.8,0-13.449,0c2.261-5.21,4.45-10.254,6.864-15.814
		C54.554,69.429,56.627,74.407,58.859,79.766z"/>
	<path fill="#FFFFFF" d="M280.001,57.495c3.898,0,7.845-0.76,10.647,2.676c1.626,1.994,1.403,6.64-0.137,9.006
		c-1.64,2.52-5.75,3.672-10.511,2.878C280.001,67.328,280.001,62.574,280.001,57.495z"/>
	<path fill="#FFFFFF" d="M389.778,75.917c0-6.199,0-12.186,0-18.42c4.243,0.065,8.663-1.021,11.798,2.888
		c2.123,2.647,2.177,9.531,0.136,12.356C398.66,76.968,394.117,75.796,389.778,75.917z"/>
</g>
</svg>
