<?xml version="1.0" encoding="utf-8"?>
<!-- Generator: Adobe Illustrator 17.0.0, SVG Export Plug-In . SVG Version: 6.00 Build 0)  -->
<!DOCTYPE svg PUBLIC "-//W3C//DTD SVG 1.1//EN" "http://www.w3.org/Graphics/SVG/1.1/DTD/svg11.dtd">
<svg version="1.1" id="Layer_1" xmlns="http://www.w3.org/2000/svg" xmlns:xlink="http://www.w3.org/1999/xlink" x="0px" y="0px"
	 width="960px" height="560px" viewBox="0 0 960 560" enable-background="new 0 0 960 560" xml:space="preserve">
<g>
	<polygon fill-rule="evenodd" clip-rule="evenodd" fill="#FFFFFF" points="383,184 575.756,184 575.756,376.756 383,376.756 
		383,184 	"/>
	<path fill-rule="evenodd" clip-rule="evenodd" fill="#384A9C" d="M391.504,304.193h1.96c2.164,0,3.98,0.585,3.98,2.386
		c0,0.713-0.363,1.321-1.17,1.718c1.422,0.259,2.26,1.206,2.26,2.258c0,1.755-1.912,2.458-4.265,2.458h-2.764V304.193
		L391.504,304.193z M392.831,312.1h1.327c1.485,0,3.05-0.269,3.05-1.613c0-1.369-1.771-1.568-3.223-1.568h-1.153V312.1
		L392.831,312.1z M392.831,308.076h0.507c1.498,0,2.779-0.128,2.779-1.497c0-1.335-1.138-1.474-2.764-1.474h-0.522V308.076
		L392.831,308.076z"/>
	<path fill-rule="evenodd" clip-rule="evenodd" fill="#384A9C" d="M400.441,310.462c0.018,1.019,0.996,1.837,2.434,1.837
		c1.074,0,1.769-0.48,2.258-1.134l1.075,0.455c-0.712,0.982-1.912,1.545-3.428,1.545c-2.21,0-3.632-1.252-3.632-2.832
		c0-1.625,1.279-2.971,3.602-2.971c2.384,0,3.648,1.463,3.521,3.099H400.441L400.441,310.462z M404.944,309.666
		c-0.174-0.795-1.075-1.438-2.18-1.438c-1.09,0-2.101,0.643-2.26,1.438H404.944L404.944,309.666z"/>
	<polygon fill-rule="evenodd" clip-rule="evenodd" fill="#384A9C" points="406.11,307.514 407.578,307.514 410.201,311.458 
		412.601,307.514 414.038,307.514 408.557,316.102 407.121,316.102 409.52,312.498 406.11,307.514 	"/>
	<path fill-rule="evenodd" clip-rule="evenodd" fill="#384A9C" d="M413.878,310.277c0-1.616,1.723-2.914,3.902-2.914
		c2.18,0,3.9,1.299,3.9,2.914c0,1.613-1.736,2.888-3.9,2.888C415.615,313.165,413.878,311.89,413.878,310.277L413.878,310.277z
		 M415.141,310.263c0,1.124,1.075,2.036,2.638,2.036c1.564,0,2.637-0.912,2.637-2.036c0-1.111-1.073-2.034-2.637-2.034
		C416.216,308.229,415.141,309.152,415.141,310.263L415.141,310.263z"/>
	<path fill-rule="evenodd" clip-rule="evenodd" fill="#384A9C" d="M424.014,308.181h0.033c0.52-0.526,1.201-0.818,2.117-0.818
		c2.053,0,2.527,1.1,2.527,2.386v3.265h-1.264v-3.101c0-0.889-0.096-1.684-1.564-1.684c-1.738,0-1.849,1.193-1.849,2.176v2.61
		h-1.263v-5.5h1.263V308.181L424.014,308.181z"/>
	<path fill-rule="evenodd" clip-rule="evenodd" fill="#384A9C" d="M435.938,312.253h-0.033c-0.616,0.597-1.548,0.912-2.558,0.912
		c-2.181,0-3.554-1.369-3.554-2.888c0-1.568,1.342-2.914,3.569-2.914c0.994,0,1.942,0.35,2.543,0.935h0.033v-4.936h1.264v9.653
		h-1.264V312.253L435.938,312.253z M431.087,310.206c0,1.076,0.853,2.093,2.432,2.093c1.627,0,2.481-0.971,2.481-2.082
		c0-1.099-0.933-1.988-2.497-1.988C432.036,308.229,431.087,309.175,431.087,310.206L431.087,310.206z"/>
	<path fill-rule="evenodd" clip-rule="evenodd" fill="#384A9C" d="M449.848,313.014h-1.264v-0.761h-0.031
		c-0.648,0.608-1.516,0.912-2.56,0.912c-2.179,0-3.554-1.369-3.554-2.888c0-1.568,1.344-2.914,3.571-2.914
		c1.01,0,1.927,0.35,2.543,0.935h0.031v-0.783h1.264V313.014L449.848,313.014z M443.736,310.206c0,1.076,0.852,2.093,2.432,2.093
		c1.627,0,2.48-0.971,2.48-2.082c0-1.099-0.931-1.988-2.495-1.988C444.684,308.229,443.736,309.175,443.736,310.206L443.736,310.206
		z"/>
	<path fill-rule="evenodd" clip-rule="evenodd" fill="#384A9C" d="M452.785,308.181h0.033c0.52-0.526,1.2-0.818,2.116-0.818
		c2.053,0,2.528,1.1,2.528,2.386v3.265h-1.264v-3.101c0-0.889-0.096-1.684-1.564-1.684c-1.737,0-1.848,1.193-1.848,2.176v2.61
		h-1.264v-5.5h1.264V308.181L452.785,308.181z"/>
	<polygon fill-rule="evenodd" clip-rule="evenodd" fill="#384A9C" points="457.964,307.514 459.432,307.514 462.055,311.458 
		464.454,307.514 465.892,307.514 460.411,316.102 458.975,316.102 461.374,312.498 457.964,307.514 	"/>
	<path fill-rule="evenodd" clip-rule="evenodd" fill="#384A9C" d="M473.595,308.789c-0.174-0.293-0.553-0.56-1.01-0.56
		c-0.443,0-0.917,0.257-0.917,0.608c0,0.503,0.852,0.691,1.722,0.96c0.868,0.268,1.721,0.654,1.721,1.579
		c0,1.04-1.136,1.79-2.51,1.79c-1.248,0-2.227-0.526-2.623-1.392l1.122-0.352c0.316,0.516,0.679,0.877,1.516,0.877
		c0.679,0,1.2-0.339,1.2-0.841c0-1.23-3.35-0.809-3.35-2.539c0-0.925,1.012-1.556,2.212-1.556c0.853,0,1.642,0.444,1.975,1.017
		L473.595,308.789L473.595,308.789z"/>
	<polygon fill-rule="evenodd" clip-rule="evenodd" fill="#384A9C" points="477.558,313.014 476.296,313.014 476.296,308.38 
		475.522,308.38 475.522,307.514 476.296,307.514 476.296,305.537 477.558,305.537 477.558,307.514 478.884,307.514 478.884,308.38 
		477.558,308.38 477.558,313.014 	"/>
	<path fill-rule="evenodd" clip-rule="evenodd" fill="#384A9C" d="M478.695,310.277c0-1.616,1.722-2.914,3.902-2.914
		c2.18,0,3.902,1.299,3.902,2.914c0,1.613-1.737,2.888-3.902,2.888C480.433,313.165,478.695,311.89,478.695,310.277L478.695,310.277
		z M479.959,310.263c0,1.124,1.074,2.036,2.638,2.036c1.564,0,2.638-0.912,2.638-2.036c0-1.111-1.074-2.034-2.638-2.034
		C481.033,308.229,479.959,309.152,479.959,310.263L479.959,310.263z"/>
	<path fill-rule="evenodd" clip-rule="evenodd" fill="#384A9C" d="M488.769,308.112h0.032c0.442-0.434,0.82-0.749,1.642-0.749
		c0.427,0,0.774,0.105,1.138,0.258l-0.6,0.853c-0.252-0.128-0.426-0.245-0.759-0.245c-1.39,0-1.453,1.321-1.453,2.034v2.751h-1.264
		v-5.5h1.264V308.112L488.769,308.112z"/>
	<path fill-rule="evenodd" clip-rule="evenodd" fill="#384A9C" d="M492.827,310.462c0.015,1.019,0.996,1.837,2.434,1.837
		c1.073,0,1.768-0.48,2.258-1.134l1.075,0.455c-0.711,0.982-1.912,1.545-3.428,1.545c-2.212,0-3.633-1.252-3.633-2.832
		c0-1.625,1.279-2.971,3.602-2.971c2.384,0,3.648,1.463,3.521,3.099H492.827L492.827,310.462z M497.329,309.666
		c-0.174-0.795-1.074-1.438-2.18-1.438c-1.089,0-2.101,0.643-2.259,1.438H497.329L497.329,309.666z"/>
	<path fill-rule="evenodd" clip-rule="evenodd" fill="#384A9C" d="M503.264,310.277c0-1.616,1.721-2.914,3.9-2.914
		c2.18,0,3.902,1.299,3.902,2.914c0,1.613-1.738,2.888-3.902,2.888C505,313.165,503.264,311.89,503.264,310.277L503.264,310.277z
		 M504.527,310.263c0,1.124,1.073,2.036,2.637,2.036c1.564,0,2.638-0.912,2.638-2.036c0-1.111-1.074-2.034-2.638-2.034
		C505.6,308.229,504.527,309.152,504.527,310.263L504.527,310.263z"/>
	<path fill-rule="evenodd" clip-rule="evenodd" fill="#384A9C" d="M513.511,313.014h-1.264v-4.634h-0.696v-0.866h0.696v-2.187
		c0-0.455,0-1.029,0.331-1.426c0.411-0.491,1.153-0.69,1.911-0.69c0.3,0,0.6,0.046,0.901,0.117v0.946
		c-0.285-0.069-0.537-0.128-0.852-0.128c-1.027,0-1.027,0.539-1.027,1.51v1.858h1.879v0.866h-1.879V313.014L513.511,313.014z"/>
	<path fill-rule="evenodd" clip-rule="evenodd" fill="#384A9C" d="M520.235,307.514h1.264v5.498h-1.264V307.514L520.235,307.514z
		 M521.768,305.443c0,0.375-0.411,0.667-0.901,0.667c-0.49,0-0.9-0.292-0.9-0.667c0-0.361,0.411-0.665,0.9-0.665
		C521.357,304.778,521.768,305.082,521.768,305.443L521.768,305.443z"/>
	<polygon fill-rule="evenodd" clip-rule="evenodd" fill="#384A9C" points="524.801,313.014 523.537,313.014 523.537,308.38 
		522.762,308.38 522.762,307.514 523.537,307.514 523.537,305.537 524.801,305.537 524.801,307.514 526.127,307.514 526.127,308.38 
		524.801,308.38 524.801,313.014 	"/>
	<path fill-rule="evenodd" clip-rule="evenodd" fill="#384A9C" d="M529.601,308.789c-0.174-0.293-0.552-0.56-1.011-0.56
		c-0.442,0-0.916,0.257-0.916,0.608c0,0.503,0.852,0.691,1.723,0.96c0.868,0.268,1.721,0.654,1.721,1.579
		c0,1.04-1.136,1.79-2.51,1.79c-1.249,0-2.227-0.526-2.623-1.392l1.122-0.352c0.315,0.516,0.679,0.877,1.516,0.877
		c0.678,0,1.2-0.339,1.2-0.841c0-1.23-3.349-0.809-3.349-2.539c0-0.925,1.011-1.556,2.212-1.556c0.853,0,1.642,0.444,1.975,1.017
		L529.601,308.789L529.601,308.789z"/>
	<polygon fill-rule="evenodd" clip-rule="evenodd" fill="#384A9C" points="537.638,309.55 540.34,307.514 542.03,307.514 
		538.854,309.854 542.628,313.014 540.956,313.014 537.969,310.51 537.638,310.754 537.638,313.014 536.374,313.014 
		536.374,303.362 537.638,303.362 537.638,309.55 	"/>
	<path fill-rule="evenodd" clip-rule="evenodd" fill="#384A9C" d="M543.435,307.514h1.264v5.498h-1.264V307.514L543.435,307.514z
		 M544.966,305.443c0,0.375-0.411,0.667-0.901,0.667c-0.489,0-0.9-0.292-0.9-0.667c0-0.361,0.411-0.665,0.9-0.665
		C544.555,304.778,544.966,305.082,544.966,305.443L544.966,305.443z"/>
	<path fill-rule="evenodd" clip-rule="evenodd" fill="#384A9C" d="M547.935,308.181h0.032c0.52-0.526,1.199-0.818,2.117-0.818
		c2.053,0,2.525,1.1,2.525,2.386v3.265h-1.262v-3.101c0-0.889-0.096-1.684-1.564-1.684c-1.738,0-1.849,1.193-1.849,2.176v2.61
		h-1.263v-5.5h1.263V308.181L547.935,308.181z"/>
	<path fill-rule="evenodd" clip-rule="evenodd" fill="#384A9C" d="M559.857,312.253h-0.031c-0.617,0.597-1.548,0.912-2.559,0.912
		c-2.18,0-3.555-1.369-3.555-2.888c0-1.568,1.344-2.914,3.571-2.914c0.994,0,1.942,0.35,2.543,0.935h0.031v-4.936h1.264v9.653
		h-1.264V312.253L559.857,312.253z M555.009,310.206c0,1.076,0.853,2.093,2.432,2.093c1.627,0,2.479-0.971,2.479-2.082
		c0-1.099-0.931-1.988-2.495-1.988C555.955,308.229,555.009,309.175,555.009,310.206L555.009,310.206z"/>
	<path fill-rule="evenodd" clip-rule="evenodd" fill="#384A9C" d="M564.91,312.498c0,0.363-0.394,0.667-0.883,0.667
		c-0.492,0-0.885-0.304-0.885-0.667c0-0.35,0.394-0.643,0.885-0.643C564.516,311.855,564.91,312.148,564.91,312.498L564.91,312.498z
		"/>
	<path fill-rule="evenodd" clip-rule="evenodd" fill="#384A9C" d="M391.741,278.561h9.475c4.334,0,8.76,0.945,8.76,5.642
		c0,1.782-0.981,3.537-2.941,4.105v0.163c2.436,0.782,3.981,2.401,3.981,4.831c0,4.185-4.277,5.617-8.198,5.617h-11.077V278.561
		L391.741,278.561z M400.026,286.39c1.189,0,2.526-0.107,2.526-1.512c0-1.511-1.516-1.403-2.704-1.403h-0.564v2.915H400.026
		L400.026,286.39z M399.285,294.059h0.919c1.337,0,3.267-0.027,3.267-1.701c0-1.7-2.078-1.673-3.385-1.673h-0.801V294.059
		L399.285,294.059z"/>
	<polygon fill-rule="evenodd" clip-rule="evenodd" fill="#384A9C" points="412.317,278.561 428.744,278.561 428.744,284.123 
		421.259,284.123 421.259,286.067 428.096,286.067 428.096,291.359 421.259,291.359 421.259,293.357 429.001,293.357 
		429.001,298.918 412.317,298.918 412.317,278.561 	"/>
	<path fill-rule="evenodd" clip-rule="evenodd" fill="#384A9C" d="M440.287,278.561l3.061,5.318h0.293
		c0.291-0.648,0.545-1.296,0.91-1.917l1.969-3.401h11.224l-9.403,11.582v8.775h-9.767v-8.775l-9.586-11.582H440.287L440.287,278.561
		z"/>
	<path fill-rule="evenodd" clip-rule="evenodd" fill="#384A9C" d="M485.996,288.793c0,6.535-7.32,10.448-16.324,10.448
		c-9.003,0-16.323-3.913-16.323-10.448c0-6.399,7.36-10.557,16.323-10.557C478.636,278.236,485.996,282.395,485.996,288.793
		L485.996,288.793z M464.152,288.903c0,2.321,2.271,3.913,5.52,3.913c3.25,0,5.519-1.592,5.519-3.913
		c0-2.16-2.112-3.969-5.519-3.969C466.267,284.934,464.152,286.742,464.152,288.903L464.152,288.903z"/>
	<path fill-rule="evenodd" clip-rule="evenodd" fill="#384A9C" d="M520.803,278.561h16.946c15.368,0,27.152,2.996,27.152,10.475
		c0,6.047-9.598,9.882-23.022,9.882h-21.076V278.561L520.803,278.561z M537.445,292.816h1.032c5.526,0,9.778-1.134,9.778-3.806
		c0-2.862-3.705-4.076-9.778-4.076h-1.032V292.816L537.445,292.816z"/>
	<path fill-rule="evenodd" clip-rule="evenodd" fill="#384A9C" d="M561.291,278.783c0-1.508,1.202-2.711,2.725-2.711
		c1.523,0,2.726,1.202,2.726,2.711c0,1.509-1.203,2.711-2.726,2.711C562.493,281.494,561.291,280.292,561.291,278.783
		L561.291,278.783z M566.325,278.783c0-1.279-1.065-2.294-2.309-2.294c-1.245,0-2.308,1.015-2.308,2.294
		c0,1.279,1.063,2.294,2.308,2.294C565.26,281.078,566.325,280.062,566.325,278.783L566.325,278.783z M565.31,280.25h-0.501
		l-0.89-1.369h-0.501v1.369h-0.417v-2.969h1.292c0.535,0,1.057,0.147,1.057,0.786c0,0.585-0.411,0.801-0.939,0.814L565.31,280.25
		L565.31,280.25z M563.92,278.464c0.369,0,1.015,0.069,1.015-0.403c0-0.306-0.403-0.361-0.725-0.361h-0.791v0.765H563.92
		L563.92,278.464z"/>
	<path fill-rule="evenodd" clip-rule="evenodd" fill="#384A9C" d="M562.08,302.434c0-1.432,1.142-2.574,2.585-2.574
		c1.445,0,2.587,1.141,2.587,2.574c0,1.432-1.141,2.573-2.587,2.573C563.222,305.008,562.08,303.866,562.08,302.434L562.08,302.434z
		 M566.856,302.434c0-1.214-1.009-2.178-2.191-2.178c-1.18,0-2.189,0.963-2.189,2.178c0,1.214,1.009,2.178,2.189,2.178
		C565.847,304.612,566.856,303.648,566.856,302.434L566.856,302.434z M565.893,303.826h-0.474l-0.845-1.3h-0.477v1.3h-0.395v-2.816
		h1.227c0.508,0,1.004,0.138,1.004,0.746c0,0.553-0.39,0.757-0.891,0.77L565.893,303.826L565.893,303.826z M564.574,302.13
		c0.349,0,0.964,0.067,0.964-0.383c0-0.291-0.383-0.342-0.687-0.342h-0.753v0.725H564.574L564.574,302.13z"/>
	<polygon fill-rule="evenodd" clip-rule="evenodd" fill="#384A9C" points="498.333,278.575 487.329,278.575 487.329,298.932 
		498.292,298.932 498.292,288.576 508,298.932 518.964,298.932 518.964,278.575 508,278.575 508,289.126 498.333,278.575 	"/>
	<path fill-rule="evenodd" clip-rule="evenodd" fill="#384A9C" d="M391.687,245.799h3.288c5.078,0,9.867,1.323,9.867,7.4
		c0,1.965-1.072,4.254-2.894,5.112v0.071c3.181,0.573,5.397,3.682,5.397,6.829c0,5.399-4.611,7.544-9.366,7.544h-6.292V245.799
		L391.687,245.799z M395.048,257.74h0.856c3.183,0,5.793-0.644,5.793-4.506c0-3.789-2.575-4.431-5.72-4.431h-0.93V257.74
		L395.048,257.74z M395.048,269.752h2.573c3.111,0,6.365-0.929,6.365-4.754c0-3.789-3.862-4.577-6.865-4.577h-2.072V269.752
		L395.048,269.752z"/>
	<polygon fill-rule="evenodd" clip-rule="evenodd" fill="#384A9C" points="409.308,245.799 423.788,245.799 423.788,248.873 
		412.669,248.873 412.669,256.417 423.465,256.417 423.465,259.491 412.669,259.491 412.669,269.681 423.788,269.681 
		423.788,272.755 409.308,272.755 409.308,245.799 	"/>
	<path fill-rule="evenodd" clip-rule="evenodd" fill="#384A9C" d="M426.933,245.799h5.577c8.259,0,15.124,4.361,15.124,13.334
		c0,9.188-6.722,13.622-15.231,13.622h-5.47V245.799L426.933,245.799z M430.294,269.681h1.18c6.864,0,12.799-2.575,12.799-10.404
		c0-7.866-5.936-10.405-12.799-10.405h-1.18V269.681L430.294,269.681z"/>
	<path fill-rule="evenodd" clip-rule="evenodd" fill="#384A9C" d="M457.092,245.799h3.29c5.076,0,9.867,1.323,9.867,7.4
		c0,1.965-1.073,4.254-2.896,5.112v0.071c3.183,0.573,5.399,3.682,5.399,6.829c0,5.399-4.611,7.544-9.366,7.544h-6.293V245.799
		L457.092,245.799z M460.453,257.74h0.858c3.181,0,5.791-0.644,5.791-4.506c0-3.789-2.573-4.431-5.72-4.431h-0.929V257.74
		L460.453,257.74z M460.453,269.752h2.575c3.11,0,6.362-0.929,6.362-4.754c0-3.789-3.859-4.577-6.864-4.577h-2.074V269.752
		L460.453,269.752z"/>
	<path fill-rule="evenodd" clip-rule="evenodd" fill="#384A9C" d="M479.256,265.997l-3.074,6.758h-3.611l12.87-28.101l12.87,28.101
		h-3.611l-3.074-6.758H479.256L479.256,265.997z M485.44,252.02l-4.791,10.903h9.583L485.44,252.02L485.44,252.02z"/>
	<polygon fill-rule="evenodd" clip-rule="evenodd" fill="#384A9C" points="504.247,272.755 500.886,272.755 500.886,248.873 
		494.487,248.873 494.487,245.799 510.645,245.799 510.645,248.873 504.247,248.873 504.247,272.755 	"/>
	<polygon fill-rule="evenodd" clip-rule="evenodd" fill="#384A9C" points="528.656,256.668 528.656,245.799 532.017,245.799 
		532.017,272.755 528.656,272.755 528.656,259.812 515.822,259.812 515.822,272.755 512.462,272.755 512.462,245.799 
		515.822,245.799 515.822,256.668 528.656,256.668 	"/>
	<path fill-rule="evenodd" clip-rule="evenodd" fill="#384A9C" d="M557.137,269.107c-2.038,2.396-4.899,4.22-8.08,4.22
		c-4.504,0-8.259-3.288-8.259-7.936c0-3.434,2.145-5.292,4.72-7.15l1.681-1.215c-1.537-1.61-2.967-3.612-2.967-5.9
		c0-3.718,2.68-5.898,6.219-5.898c3.29,0,6.221,2.072,6.221,5.613c0,3.038-2.646,5.076-4.898,6.72l5.613,6.793l3.146-3.646
		l2.146,2.216l-3.29,3.862l4.827,5.971h-4.147L557.137,269.107L557.137,269.107z M548.843,259.671
		c-1.858,1.287-4.898,3.108-4.898,5.684c0,2.574,2.43,4.969,5.005,4.969c2.503,0,4.504-1.894,6.185-3.575l-5.97-7.293
		L548.843,259.671L548.843,259.671z M550.31,254.951c1.357-1.072,3.218-2.181,3.218-4.147c0-1.895-1.359-2.932-3.147-2.932
		c-1.608,0-3.003,1.145-3.003,2.86c0,1.36,0.822,2.361,1.61,3.361l0.892,1.145L550.31,254.951L550.31,254.951z"/>
</g>
</svg>
