<?xml version="1.0" encoding="utf-8"?>
<!-- Generator: Adobe Illustrator 17.0.0, SVG Export Plug-In . SVG Version: 6.00 Build 0)  -->
<!DOCTYPE svg PUBLIC "-//W3C//DTD SVG 1.1//EN" "http://www.w3.org/Graphics/SVG/1.1/DTD/svg11.dtd">
<svg version="1.1" id="Layer_1" xmlns="http://www.w3.org/2000/svg" xmlns:xlink="http://www.w3.org/1999/xlink" x="0px" y="0px"
	 width="612px" height="792px" viewBox="0 0 612 792" enable-background="new 0 0 612 792" xml:space="preserve">
<g>
	<path fill="#ED1C2E" d="M201.006,387.367c4.649,0,8.418-3.771,8.418-8.418c0-4.648-3.769-8.418-8.418-8.418
		c-4.646,0-8.416,3.77-8.416,8.418C192.59,383.597,196.359,387.367,201.006,387.367L201.006,387.367z M201.006,395.315
		c8.953,0,16.21-7.258,16.21-16.211c0-8.952-7.257-16.208-16.21-16.208c-8.951,0-16.209,7.256-16.209,16.208
		C184.797,388.058,192.055,395.315,201.006,395.315L201.006,395.315z M176.6,379.105c0-13.479,10.927-24.404,24.406-24.404
		c13.479,0,24.407,10.926,24.407,24.404c0,13.48-10.929,24.406-24.407,24.406C187.526,403.511,176.6,392.585,176.6,379.105
		L176.6,379.105z"/>
	<polygon points="233.34,361.589 261.149,361.589 261.149,368.605 251.584,368.605 251.584,396.727 243.086,396.727 
		243.086,368.658 233.34,368.658 233.34,361.589 	"/>
	<path d="M303.033,368.658h-7.797v7.016c0,0,6.082,0.022,6.992,0c2.443-0.051,4.332-1.142,4.332-3.534
		C306.56,369.537,304.957,368.658,303.033,368.658L303.033,368.658z M287.127,361.589c0,0,6.394,0,16.504,0
		c9.383,0,10.682,6.42,10.682,10.161c0,5.433-4.678,8.162-5.094,8.266c0,0,4.107,1.533,4.107,6.186v6.55
		c0,2.626,1.611,3.353,1.896,3.976h-6.705c-3.197-0.362-3.145-2.909-3.119-4.366v-5.639c-0.078-1.377-0.494-2.913-3.379-2.964
		h-6.783v12.969h-8.135L287.127,361.589L287.127,361.589z"/>
	<polygon points="350.182,361.589 350.182,396.727 375.494,396.727 375.494,389.503 358.445,389.503 358.445,381.651 373,381.651 
		373,375 358.445,375 358.445,368.658 375.494,368.658 375.494,361.589 350.182,361.589 	"/>
	<polygon points="376.691,368.658 386.725,368.658 386.725,396.727 395.039,396.727 395.039,368.658 405.227,368.658 
		405.227,361.589 376.691,361.589 376.691,368.658 	"/>
	<path d="M269.934,373.986l-2.989,9.07h6.161L269.934,373.986L269.934,373.986z M265.223,361.582h9.02l12.287,35.145h-8.741
		l-2.538-7.303h-10.371l-2.394,7.303h-8.669L265.223,361.582L265.223,361.582z"/>
	<path d="M347.27,377.105h-15.1v6.834h7.172c-0.014,1.406,0.209,2.81-1.477,4.785c-0.574,0.673-2.539,2.181-5.281,2.181
		c-2.313,0-3.975-0.661-5.418-1.886c-3.188-2.707-3.938-7.764-3.938-10.408c0-3.327,1.324-11.59,9.459-11.929
		c0,0,5.486-0.354,6.916,6.263h7.613c-0.154-3.354-4.055-12.772-14.529-12.786c-3.615-0.005-8.203,1.083-12.002,4.888
		c-2.752,2.756-5.228,7.383-5.228,13.902c0,7.072,2.603,11.67,4.984,14.195c4.18,4.436,8.391,4.777,10.584,4.777
		c1.74,0,5.068-0.259,9.383-3.17l1.143,1.975h5.719V377.105L347.27,377.105z"/>
	<path d="M398.896,394.416h0.438c0.279,0,0.486-0.043,0.486-0.344c0-0.268-0.283-0.309-0.51-0.309h-0.414V394.416L398.896,394.416z
		 M398.404,393.38h0.935c0.621,0,0.973,0.193,0.973,0.734c0,0.455-0.285,0.631-0.652,0.663l0.662,1.083h-0.514l-0.604-1.06h-0.309
		v1.06h-0.492V393.38L398.404,393.38z M399.287,396.37c0.918,0,1.67-0.735,1.67-1.748c0-1.007-0.752-1.734-1.67-1.734
		c-0.932,0-1.672,0.728-1.672,1.734C397.615,395.635,398.355,396.37,399.287,396.37L399.287,396.37z M399.287,392.412
		c1.201,0,2.273,0.865,2.273,2.21c0,1.351-1.072,2.221-2.273,2.221c-1.203,0-2.275-0.87-2.275-2.221
		C397.012,393.277,398.084,392.412,399.287,392.412L399.287,392.412z"/>
	<polygon fill-rule="evenodd" clip-rule="evenodd" fill="none" points="169.07,349.809 410.623,349.809 410.623,410.266 
		169.07,410.266 169.07,349.809 169.07,349.809 	"/>
</g>
</svg>
