<?xml version="1.0" encoding="utf-8"?>
<!-- Generator: Adobe Illustrator 17.0.0, SVG Export Plug-In . SVG Version: 6.00 Build 0)  -->
<!DOCTYPE svg PUBLIC "-//W3C//DTD SVG 1.1//EN" "http://www.w3.org/Graphics/SVG/1.1/DTD/svg11.dtd">
<svg version="1.1" id="Layer_1" xmlns="http://www.w3.org/2000/svg" xmlns:xlink="http://www.w3.org/1999/xlink" x="0px" y="0px"
	 width="320px" height="80.091px" viewBox="129.846 339.992 320 80.091" enable-background="new 129.846 339.992 320 80.091"
	 xml:space="preserve">
<g>
	<path fill="#ED1C2E" d="M172.154,389.747c6.159,0,11.152-4.996,11.152-11.152c0-6.158-4.993-11.152-11.152-11.152
		c-6.155,0-11.149,4.994-11.149,11.152C161.005,384.753,165.998,389.747,172.154,389.747L172.154,389.747z M172.154,400.277
		c11.861,0,21.474-9.615,21.474-21.476c0-11.859-9.614-21.472-21.474-21.472c-11.858,0-21.473,9.612-21.473,21.472
		C150.681,390.663,160.296,400.277,172.154,400.277L172.154,400.277z M139.822,378.802c0-17.856,14.476-32.329,32.332-32.329
		s32.333,14.474,32.333,32.329c0,17.858-14.478,32.332-32.333,32.332C154.296,411.134,139.822,396.66,139.822,378.802
		L139.822,378.802z"/>
	<polygon points="214.989,355.598 251.829,355.598 251.829,364.892 239.158,364.892 239.158,402.147 227.9,402.147 227.9,364.962 
		214.989,364.962 	"/>
	<path d="M307.315,364.962h-10.329v9.294c0,0,8.057,0.029,9.263,0c3.236-0.068,5.739-1.513,5.739-4.682
		C311.988,366.127,309.864,364.962,307.315,364.962L307.315,364.962z M286.244,355.598c0,0,8.471,0,21.864,0
		c12.43,0,14.151,8.505,14.151,13.461c0,7.197-6.197,10.813-6.748,10.95c0,0,5.441,2.031,5.441,8.195v8.677
		c0,3.479,2.134,4.442,2.512,5.267h-8.883c-4.235-0.48-4.166-3.854-4.132-5.784v-7.47c-0.103-1.824-0.654-3.859-4.476-3.927h-8.986
		v17.181h-10.777L286.244,355.598L286.244,355.598z"/>
	<polygon points="369.777,355.598 369.777,402.147 403.309,402.147 403.309,392.577 380.723,392.577 380.723,382.175 
		400.005,382.175 400.005,373.364 380.723,373.364 380.723,364.962 403.309,364.962 403.309,355.598 	"/>
	<polygon points="404.895,364.962 418.187,364.962 418.187,402.147 429.201,402.147 429.201,364.962 442.698,364.962 
		442.698,355.598 404.895,355.598 	"/>
	<path d="M263.467,372.021l-3.96,12.016h8.162L263.467,372.021L263.467,372.021z M257.226,355.588h11.949l16.277,46.559h-11.58
		l-3.362-9.675h-13.739l-3.171,9.675h-11.484L257.226,355.588L257.226,355.588z"/>
	<path d="M365.919,376.153h-20.004v9.053h9.501c-0.019,1.863,0.277,3.723-1.957,6.339c-0.76,0.892-3.364,2.889-6.996,2.889
		c-3.064,0-5.266-0.876-7.178-2.499c-4.223-3.586-5.217-10.285-5.217-13.788c0-4.407,1.754-15.354,12.531-15.803
		c0,0,7.268-0.469,9.162,8.297h10.085c-0.204-4.443-5.372-16.92-19.247-16.938c-4.789-0.007-10.867,1.435-15.9,6.475
		c-3.646,3.651-6.926,9.781-6.926,18.417c0,9.369,3.448,15.46,6.603,18.805c5.537,5.877,11.116,6.328,14.021,6.328
		c2.305,0,6.714-0.343,12.43-4.2l1.514,2.616h7.576L365.919,376.153L365.919,376.153z"/>
	<path d="M434.311,399.086h0.58c0.37,0,0.644-0.057,0.644-0.456c0-0.355-0.375-0.409-0.676-0.409h-0.548L434.311,399.086
		L434.311,399.086z M433.659,397.713h1.239c0.823,0,1.289,0.256,1.289,0.972c0,0.603-0.378,0.836-0.864,0.878l0.877,1.435h-0.681
		l-0.8-1.404h-0.409v1.404h-0.652v-3.285H433.659z M434.829,401.674c1.216,0,2.212-0.974,2.212-2.316
		c0-1.334-0.996-2.297-2.212-2.297c-1.235,0-2.215,0.964-2.215,2.297C432.614,400.7,433.594,401.674,434.829,401.674
		L434.829,401.674z M434.829,396.431c1.591,0,3.011,1.146,3.011,2.928c0,1.79-1.42,2.942-3.011,2.942
		c-1.594,0-3.014-1.153-3.014-2.942C431.815,397.577,433.235,396.431,434.829,396.431L434.829,396.431z"/>
	<polygon fill="none" points="129.846,339.992 449.846,339.992 449.846,420.083 129.846,420.083 129.846,339.992 	"/>
</g>
</svg>
